<svg width="217" height="35" viewBox="0 0 217 35" version="1.1" xmlns="http://www.w3.org/2000/svg" xmlns:xlink="http://www.w3.org/1999/xlink">
	<title>OnTarget Text</title>
	<desc>Created using Figma</desc>
	<g id="Canvas" transform="translate(-1325 -1485)">
		<g id="OnTarget Text" filter="url(#filter0_d)">
			<g id="target (5)">
				<g id="Fill 1">
					<use xlink:href="#path0_fill" transform="translate(1334.48 1487)" fill="#EBA538"/>
				</g>
				<g id="Group 5">
					<mask id="mask0_outline" mask-type="alpha">
						<g id="Clip 3">
							<use xlink:href="#path1_fill" transform="translate(1329 1499.4)" fill="#FFFFFF"/>
						</g>
					</mask>
					<g id="Fill 2" mask="url(#mask0_outline)">
						<use xlink:href="#path2_fill" transform="translate(1341.65 1505.18)" fill="#A9A9A9"/>
					</g>
					<g id="Fill 4" mask="url(#mask0_outline)">
						<use xlink:href="#path3_fill" transform="translate(1329 1499.4)" fill="#A9A9A9"/>
					</g>
				</g>
				<g id="Fill 6">
					<use xlink:href="#path4_fill" transform="translate(1347.54 1492.37)" fill="#EBA538"/>
				</g>
			</g>
			<g id="Combined Shape">
				<use xlink:href="#path5_fill" transform="translate(1360.06 1487)" fill="#FAFAFA"/>
			</g>
			<g id="Combined Shape">
				<use xlink:href="#path6_fill" transform="translate(1398.02 1487)" fill="#FAFAFA"/>
			</g>
			<g id="Combined Shape">
				<use xlink:href="#path7_fill" transform="translate(1418.73 1487)" fill="#FAFAFA"/>
			</g>
			<g id="Combined Shape">
				<use xlink:href="#path8_fill" transform="translate(1446.33 1487)" fill="#FAFAFA"/>
			</g>
			<g id="Path">
				<use xlink:href="#path9_fill" transform="translate(1470.49 1487)" fill="#FAFAFA"/>
			</g>
			<g id="Path">
				<use xlink:href="#path10_fill" transform="translate(1496.37 1487)" fill="#FAFAFA"/>
			</g>
			<g id="Combined Shape">
				<use xlink:href="#path6_fill" transform="translate(1518.8 1487)" fill="#FAFAFA"/>
			</g>
		</g>
	</g>
	<defs>
		<filter id="filter0_d" filterUnits="userSpaceOnUse" x="1325" y="1485" width="217" height="35" color-interpolation-filters="sRGB">
			<feFlood flood-opacity="0" result="BackgroundImageFix"/>
			<feColorMatrix in="SourceAlpha" type="matrix" values="0 0 0 0 0 0 0 0 0 0 0 0 0 0 0 0 0 0 255 0"/>
			<feOffset dx="0" dy="2"/>
			<feGaussianBlur stdDeviation="2"/>
			<feColorMatrix type="matrix" values="0 0 0 0 0 0 0 0 0 0 0 0 0 0 0 0 0 0 1 0"/>
			<feBlend mode="normal" in2="BackgroundImageFix" result="effect1_dropShadow"/>
			<feBlend mode="normal" in="SourceGraphic" in2="effect1_dropShadow" result="shape"/>
		</filter>
		<path id="path0_fill" fill-rule="evenodd" d="M 9.15929 4.18512L 9.15929 0.983297C 9.16501 0.442545 8.71914 0 8.16164 0C 7.60958 0 7.15793 0.442545 7.15793 0.983297L 7.15793 3.35467C 4.45976 3.61132 1.9733 4.90091 0.22839 6.97131C -0.123045 7.392 -0.0615111 8.00959 0.362051 8.35372C 0.551532 8.50663 0.774742 8.57786 0.997673 8.57786C 1.28757 8.57786 1.57176 8.45753 1.77239 8.22246C 3.13841 6.6 5.05615 5.57825 7.15249 5.32693L 7.15249 7.5889C 7.15249 8.12965 7.60414 8.57226 8.15593 8.57226C 8.70799 8.57226 9.15929 8.12965 9.15929 7.5889L 9.15929 4.38174C 9.16501 4.34896 9.16501 4.31611 9.16501 4.28333C 9.16501 4.25048 9.16501 4.21797 9.15929 4.18512Z"/>
		<path id="path1_fill" fill-rule="evenodd" d="M 10.9053 14.3745L 0 14.3745L 0 0L 21.8107 3.88206e-15L 21.8107 14.3745L 10.9053 14.3745Z"/>
		<path id="path2_fill" fill-rule="evenodd" d="M 8.80301 0.235068C 8.37373 -0.109065 7.74382 -0.0490351 7.39266 0.366329C 6.02665 1.98879 4.10312 3.01054 2.00706 3.26186L 2.00706 0.983638C 2.00706 0.442613 1.55548 0 1.00369 0C 0.451626 0 4.98024e-05 0.442613 4.98024e-05 0.983638L 4.98024e-05 7.60549C -0.00545553 8.14624 0.446191 8.58879 0.997978 8.58879C 1.55004 8.58879 2.00134 8.14624 2.00134 7.60549L 2.00134 5.23972C 4.69986 4.9828 7.18632 3.69348 8.93694 1.61747C 9.2881 1.19678 9.22685 0.579201 8.80301 0.235068Z"/>
		<path id="path3_fill" fill-rule="evenodd" d="M 8.38483 7.25569C 6.72898 5.91699 5.68094 4.02661 5.43021 1.96687L 7.73806 1.96687C 8.29012 1.96687 8.7417 1.52432 8.7417 0.98357C 8.7417 0.442545 8.29012 0 7.73806 0L 1.00336 0C 0.451577 0 0 0.442545 0 0.98357C 0 1.52432 0.445862 1.96687 1.00336 1.96687L 3.41198 1.96687C 3.67387 4.61674 4.98978 7.0588 7.10815 8.77441C 7.29763 8.92725 7.52084 8.99848 7.74377 8.99848C 8.03367 8.99848 8.31786 8.87822 8.51849 8.63782C 8.86993 8.21713 8.80839 7.59982 8.38483 7.25569Z"/>
		<path id="path4_fill" fill-rule="evenodd" d="M 7.76534 7.0253L 5.34564 7.0253C 5.08376 4.37543 3.76241 1.93337 1.63832 0.223356C 1.20898 -0.121051 0.579071 -0.060747 0.227914 0.359944C -0.123521 0.780362 -0.0619867 1.39794 0.36729 1.74208C 2.02865 3.08078 3.07668 4.96549 3.33313 7.0253L 1.01957 7.0253C 0.467501 7.0253 0.0158545 7.46784 0.0158545 8.00887C 0.0158545 8.54962 0.467501 8.99217 1.01957 8.99217L 4.29217 8.99217C 4.32534 8.99749 4.35886 8.99749 4.39231 8.99749C 4.42583 8.99749 4.46472 8.99749 4.49824 8.99217L 7.76534 8.99217C 8.31713 8.99217 8.76877 8.54962 8.76877 8.00887C 8.76877 7.46784 8.31713 7.0253 7.76534 7.0253Z"/>
		<path id="path5_fill" fill-rule="evenodd" d="M 14.1532 17.2336L 4.42969 1.86475L 4.42969 7.99255L 14.1532 23.2917L 14.1532 17.2336ZM 15.7738 25.8416L 15.7997 25.8823L 18.9803 25.8823L 18.9803 0L 15.7997 0L 15.7997 19.8361L 15.7738 19.7952L 15.7738 25.8416ZM 0 0L 2.80908 0L 2.80908 25.8823L 0 25.8823L 0 0Z"/>
		<path id="path6_fill" fill-rule="evenodd" d="M 0 0L 0 3.14685L 7.70959 3.14685L 7.70959 3.23083L 11.0872 3.23083L 11.0872 3.14685L 18.9803 3.14685L 18.9803 0L 0 0ZM 11.0872 4.88831L 7.70959 4.88831L 7.70959 25.8823L 11.0872 25.8823L 11.0872 4.88831Z"/>
		<path id="path7_fill" fill-rule="evenodd" d="M 9.63965 0L 0 25.8823L 3.92188 25.8823L 6.23096 19.0582L 16.3837 19.0582L 18.5829 25.8823L 22.4314 25.8823L 13.1949 0L 9.63965 0ZM 15.3574 15.9821L 7.29382 15.9821L 11.3989 4.66736L 15.3574 15.9821Z"/>
		<path id="path8_fill" fill-rule="evenodd" d="M 3.06702 0L 0 0L 0 25.8823L 3.06702 25.8823L 3.06702 0ZM 4.78796 15.1335L 9.9491 15.5223L 15.2725 25.8823L 18.9803 25.8823L 13.4735 15.3456C 13.8406 15.2748 14.2322 15.1687 14.6483 15.0273C 14.9664 14.9094 15.2296 14.7739 15.4376 14.6207C 15.6456 14.4675 15.8904 14.2671 16.1719 14.0197C 16.4534 13.7721 16.692 13.4597 16.8878 13.0826C 17.0836 12.7054 17.3223 12.1573 17.6036 11.4385C 17.8851 10.7195 18.0259 9.52319 18.0259 7.84961C 18.0259 2.61646 15.8599 0 11.5277 0L 4.78796 0L 4.78796 3.11157L 11.3809 3.11157C 12.2865 3.11157 13.0208 3.38269 13.5836 3.9248C 13.9263 4.2312 14.1833 4.71448 14.3546 5.37451C 14.526 6.03455 14.6116 6.99512 14.6116 8.25623C 14.6116 9.51733 14.4036 10.5133 13.9875 11.244C 13.5959 11.9276 12.7271 12.2694 11.3809 12.2694L 4.78796 12.2694L 4.78796 15.1335Z"/>
		<path id="path9_fill" fill-rule="evenodd" d="M 15.644 24.0063C 13.568 25.257 11.2202 25.8824 8.60049 25.8824C 5.85722 25.8824 3.79361 25.0833 2.40962 23.4852C 1.22334 22.0955 0.481926 19.9532 0.185355 17.058C 0.0617845 15.8768 0 14.4988 0 12.9238C 0 11.3489 0.067963 9.97079 0.203891 8.78958C 0.339819 7.60836 0.593135 6.44454 0.963848 5.29807C 1.33456 4.15159 1.84119 3.20779 2.48376 2.46664C 3.86776 0.822205 5.95607 0 8.74877 0C 10.0339 0 11.6032 0.0926428 13.4568 0.277931C 15.3104 0.46322 16.9662 0.694827 18.4243 0.97276L 18.4243 3.50888C 18.3996 3.50888 18.1772 3.49151 17.757 3.45677C 17.3369 3.42203 16.7932 3.3815 16.1259 3.33518C 15.4586 3.28885 14.7419 3.24253 13.9758 3.19621C 12.1222 3.0804 10.6085 3.0225 9.43459 3.0225C 8.26067 3.0225 7.34626 3.15568 6.69133 3.42203C 6.0364 3.68838 5.4927 4.06474 5.0602 4.55113C 4.6277 5.03751 4.30025 5.69759 4.07782 6.53139C 3.63296 7.99053 3.41054 10.3529 3.41054 13.6186C 3.41054 16.8843 3.81832 19.2236 4.63388 20.6364C 5.47417 22.0724 6.99407 22.7904 9.19363 22.7904C 9.98448 22.7904 10.9112 22.663 11.974 22.4082C 13.0367 22.1534 13.9017 21.8871 14.5689 21.6092L 15.5699 21.1923L 15.5699 14.9041L 10.0092 14.9041L 10.0092 12.7848C 11.9369 12.2058 14.087 11.9163 16.4596 11.9163C 17.2504 11.9163 18.0907 11.951 18.9804 12.0205L 18.9804 25.7086L 16.4596 25.7086L 15.644 24.0063Z"/>
		<path id="path10_fill" fill-rule="evenodd" d="M 4.388 0C 4.45656 0 6.22775 0.0821654 9.7016 0.246499C 13.1754 0.410832 15.118 0.516473 15.5294 0.563425L 15.5294 3.16927L 4.9365 3.16927C 4.09089 3.16927 3.56525 3.38055 3.35956 3.80312C 3.22244 4.13179 3.15388 4.57783 3.15388 5.14126L 3.15388 11.3389L 14.0896 11.7263L 14.0896 14.3321L 3.15388 14.6843L 3.15388 20.882C 3.17673 21.774 3.4167 22.314 3.87378 22.5018C 4.23945 22.6427 4.70796 22.7131 5.27931 22.7131L 15.5294 22.7131L 15.5294 25.2837L 4.97078 25.8824L 4.42228 25.8824C 1.47408 25.8824 0 24.3329 0 21.2341L 0 4.78912C 0 3.05188 0.428512 1.8194 1.28555 1.09164C 2.14258 0.363875 3.17672 0 4.388 0Z"/>
	</defs>
</svg>
