<?xml version="1.0" standalone="no"?>
<!DOCTYPE svg PUBLIC "-//W3C//DTD SVG 1.1//EN" "http://www.w3.org/Graphics/SVG/1.1/DTD/svg11.dtd" >
<svg xmlns="http://www.w3.org/2000/svg" xmlns:xlink="http://www.w3.org/1999/xlink" version="1.1">
<metadata></metadata>
<defs>
<font id="exomedium" horiz-adv-x="1247" >
<font-face units-per-em="2048" ascent="1638" descent="-410" />
<missing-glyph horiz-adv-x="546" />
<glyph unicode="&#xfb01;" horiz-adv-x="1284" d="M35 928v133l164 35v137q0 182 71.5 262t239.5 80q135 0 246 -31v-147q-106 8 -181 8q-98 0 -133.5 -47t-35.5 -152v-110h735v-1096h-205v928h-530v-928h-207v928h-164zM928 1315v172q0 37 37 37h151q17 0 25 -10.5t8 -26.5v-172q0 -35 -33 -35h-151q-16 0 -26.5 9 t-10.5 26z" />
<glyph unicode="&#xfb02;" horiz-adv-x="1406" d="M35 928v133l164 35v118q0 193 95 277t314 84q250 0 533 -47v-1145q0 -121 33.5 -167t107.5 -56l102 -13v-147h-143q-156 0 -230.5 83t-74.5 271v1045q-152 6 -299 6q-133 0 -182 -47t-49 -152v-110h319v-168h-319v-928h-207v928h-164z" />
<glyph horiz-adv-x="0" />
<glyph unicode="&#xd;" horiz-adv-x="546" />
<glyph unicode=" "  horiz-adv-x="546" />
<glyph unicode="&#x09;" horiz-adv-x="546" />
<glyph unicode="&#xa0;" horiz-adv-x="546" />
<glyph unicode="!" horiz-adv-x="548" d="M168 1507h207l-31 -1095h-149zM176 33v178q0 37 35 37h117q37 0 37 -37v-178q0 -35 -37 -35h-117q-14 0 -24.5 10t-10.5 25z" />
<glyph unicode="&#x22;" horiz-adv-x="655" d="M78 1397v137h198v-137l-16 -365h-164zM371 1397v137h198v-137l-16 -365h-164z" />
<glyph unicode="#" horiz-adv-x="1427" d="M41 457l20 135h338l50 311h-338l22 135h342l80 461h135l-80 -461h291l78 461h135l-78 -461h355l-21 -135h-356l-49 -311h354l-19 -135h-366l-78 -457h-135l78 457h-291l-78 -457h-135l78 457h-332zM535 592h294l50 311h-295z" />
<glyph unicode="$" d="M115 1036v84q0 205 108.5 301.5t323.5 100.5l-12 63l98 103l20 -99l-65 -67q98 -2 218 -15.5t204 -29.5v-160l-43 2q-262 18 -377 18q-139 0 -209 -49t-70 -178v-61q0 -106 56.5 -151.5t169.5 -45.5h165q185 0 281 -99.5t96 -263.5v-106q0 -207 -111.5 -295t-314.5 -98 v-172h-118v170q-109 4 -225.5 14t-184.5 27v159q170 -16 453 -16q145 0 225 44t80 161v88q0 190 -203 190h-154q-203 0 -307 89.5t-104 291.5z" />
<glyph unicode="%" horiz-adv-x="1966" d="M86 981v254q0 135 62.5 199.5t211.5 64.5h207q145 0 207 -64.5t62 -199.5v-254q0 -137 -61.5 -201.5t-211.5 -64.5h-207q-145 0 -207.5 65.5t-62.5 200.5zM219 1008q0 -88 36 -124t124 -36h160q90 0 126.5 35t36.5 125v198q0 90 -34.5 125t-124.5 35h-160q-86 0 -125 -33 t-39 -127v-198zM451 0l911 1499h137l-905 -1499h-143zM1133 272v254q0 135 61 200t211 65h209q145 0 206.5 -64.5t61.5 -200.5v-254q0 -137 -61.5 -201.5t-210.5 -64.5h-209q-146 0 -207 65.5t-61 200.5zM1266 299q0 -88 35.5 -124t123.5 -36h160q90 0 127 35t37 125v199 q0 90 -35 124.5t-125 34.5h-159q-86 0 -125 -32.5t-39 -126.5v-199z" />
<glyph unicode="&#x26;" horiz-adv-x="1394" d="M80 389q0 223 190 387l131 111l-34 51q-57 84 -79 152.5t-22 134.5q0 145 99.5 212.5t261.5 67.5q197 0 364 -32v-150h-327q-190 0 -191 -141q0 -45 23.5 -96.5t76.5 -124.5l369 -504l301 278l76 -90l-139 -196l-133 -127l239 -322h-217l-156 203l-71 -62 q-90 -84 -176 -118.5t-189 -34.5q-115 0 -205 50t-141 141t-51 210zM276 412q0 -104 63.5 -169t170.5 -65q61 0 115.5 23.5t115.5 83.5l60 57l-299 403l-99 -86q-70 -59 -98.5 -119.5t-28.5 -127.5z" />
<glyph unicode="'" horiz-adv-x="362" d="M78 1397v137h198v-137l-16 -365h-164z" />
<glyph unicode="(" horiz-adv-x="735" d="M152 668q0 317 95 581t259 512h188q-158 -270 -247 -533t-89 -560q0 -301 84 -555t252 -543h-188q-170 248 -262 507t-92 591z" />
<glyph unicode=")" horiz-adv-x="735" d="M41 -430q164 274 250 533t86 563q0 303 -82 556t-254 539h188q172 -248 262.5 -506t90.5 -589q0 -324 -91.5 -584t-261.5 -512h-188z" />
<glyph unicode="*" horiz-adv-x="913" d="M102 1188v82l289 20l4 -112zM238 846l59 278l113 -26l-97 -277zM377 1481l76 24l133 -256l-109 -43zM432 981l60 98l237 -176l-47 -63zM530 1149l236 168l47 -68l-207 -190z" />
<glyph unicode="+" d="M164 645v168h375v375h168v-375h374v-168h-374v-375h-168v375h-375z" />
<glyph unicode="," horiz-adv-x="430" d="M123 51v156q0 41 35 41h114q35 0 35 -41v-258q0 -117 -112 -117q-23 0 -41.5 4t-24.5 6v64q25 0 36 8t11 29v69h-18q-16 0 -25.5 10.5t-9.5 28.5z" />
<glyph unicode="-" horiz-adv-x="706" d="M49 510v168h608v-168h-608z" />
<glyph unicode="." horiz-adv-x="430" d="M123 33v178q0 37 35 37h116q37 0 37 -37v-178q0 -35 -37 -35h-116q-15 0 -25 10t-10 25z" />
<glyph unicode="/" horiz-adv-x="862" d="M41 -147l575 1724h205l-575 -1724h-205z" />
<glyph unicode="0" horiz-adv-x="1337" d="M143 362v781q0 182 103.5 280.5t277.5 98.5h301q184 0 276.5 -100.5t92.5 -278.5v-781q0 -182 -98.5 -275t-272.5 -93h-299q-178 0 -279.5 92t-101.5 276zM348 391q0 -104 57.5 -157.5t161.5 -53.5h207q213 0 213 211v733q0 213 -205 213h-221q-100 0 -156.5 -55 t-56.5 -158v-733z" />
<glyph unicode="1" horiz-adv-x="747" d="M82 1255v131l317 138h187v-1524h-207v1323z" />
<glyph unicode="2" horiz-adv-x="1210" d="M106 0v166l541 526q117 111 166 202t49 204q0 111 -65.5 170t-229.5 59h-413v160q266 35 456 35q248 0 352.5 -101.5t104.5 -294.5q0 -154 -60.5 -274.5t-199.5 -253.5l-424 -410h737v-188h-1014z" />
<glyph unicode="3" horiz-adv-x="1193" d="M86 18v162h483q141 0 214 44t73 159v88q0 100 -68.5 146.5t-173.5 50.5l-383 16v154l375 16q111 4 171.5 46t60.5 132v86q0 209 -281 209h-426v162q254 35 506 33q199 -2 301 -96.5t102 -264.5v-123q0 -123 -62.5 -190.5t-146.5 -87.5q88 -20 161 -102.5t73 -211.5v-98 q0 -174 -110.5 -267t-311.5 -93q-317 -1 -557 30z" />
<glyph unicode="4" horiz-adv-x="1232" d="M51 471l545 1038h211l-514 -968h498v370l43 150h163v-520h191v-142l-191 -34v-363h-206v363h-697z" />
<glyph unicode="5" horiz-adv-x="1275" d="M156 14v162h526q127 0 198.5 61.5t71.5 161.5v148q0 96 -56 149.5t-167 53.5h-147q-86 0 -134.5 -37t-62.5 -115h-195l43 911h873v-184h-694l-23 -496q29 43 89.5 70t144.5 27h174q172 0 267 -95.5t95 -248.5v-224q0 -184 -128 -276t-355 -92q-264 -1 -520 24z" />
<glyph unicode="6" horiz-adv-x="1265" d="M133 748q0 406 139.5 590t405.5 184q193 0 379 -25v-160h-367q-172 0 -261 -123.5t-89 -369.5q147 27 393 26q211 0 312.5 -78.5t101.5 -246.5v-213q0 -176 -97.5 -257t-258.5 -81h-230q-143 0 -235.5 65.5t-142.5 230.5t-50 458zM340 694q0 -201 28.5 -313.5t84 -157.5 t145.5 -45h150q92 0 143 42t51 147v141q0 111 -62.5 148.5t-199.5 37.5h-340z" />
<glyph unicode="7" horiz-adv-x="1120" d="M61 1303v206h926l60 -98l-535 -1411h-231l503 1303h-723z" />
<glyph unicode="8" horiz-adv-x="1306" d="M152 303v213q0 96 55 165t131 85q-88 39 -122 106.5t-34 159.5v174q0 162 93.5 238t244.5 76h285q152 0 236.5 -75t84.5 -239v-174q0 -76 -37.5 -150.5t-109.5 -93.5q92 -18 134 -94t42 -168v-223q0 -166 -92 -237.5t-258 -71.5h-277q-376 0 -376 309zM358 336 q0 -166 203 -166h201q98 0 143 41t45 125v172q0 92 -45 133t-149 41h-195q-74 0 -138.5 -44t-64.5 -130v-172zM383 1030q0 -82 44 -127t134 -45h193q90 0 131 50t41 122v129q0 102 -41 144.5t-123 42.5h-201q-94 0 -136 -43t-42 -144v-129z" />
<glyph unicode="9" horiz-adv-x="1265" d="M123 967v215q0 174 97 255t259 81h230q143 0 235 -66t142.5 -230.5t50.5 -457.5q0 -406 -139.5 -590t-405.5 -184q-193 -1 -379 24v162h367q172 0 261 123t89 369q-145 -27 -393 -27q-211 0 -312.5 79t-101.5 247zM328 1004q0 -109 62.5 -148t199.5 -39h340 q0 201 -29 313.5t-84 157.5t-145 45h-150q-92 0 -143 -42t-51 -146v-141z" />
<glyph unicode=":" horiz-adv-x="430" d="M123 33v178q0 37 35 37h116q37 0 37 -37v-178q0 -35 -37 -35h-116q-15 0 -25 10t-10 25zM123 883v178q0 37 35 37h116q37 0 37 -37v-178q0 -35 -37 -35h-116q-15 0 -25 10t-10 25z" />
<glyph unicode=";" horiz-adv-x="430" d="M123 51v156q0 41 35 41h114q35 0 35 -41v-258q0 -117 -112 -117q-23 0 -41.5 4t-24.5 6v64q25 0 36 8t11 29v69h-18q-16 0 -25.5 10.5t-9.5 28.5zM123 883v178q0 37 35 37h116q37 0 37 -37v-178q0 -35 -37 -35h-116q-15 0 -25 10t-10 25z" />
<glyph unicode="&#x3c;" d="M197 625v182l850 274v-180l-652 -182l652 -195v-178z" />
<glyph unicode="=" d="M164 399v168h917v-168h-917zM164 891v168h917v-168h-917z" />
<glyph unicode="&#x3e;" d="M201 346v178l653 193l-653 184v180l850 -274v-182z" />
<glyph unicode="?" horiz-adv-x="1085" d="M90 1253v150q190 111 440 110q211 0 309.5 -107.5t98.5 -299.5v-139q0 -186 -107.5 -277.5t-338.5 -91.5v-188h-158v348h115q152 0 218 47t66 166v104q0 135 -63.5 194.5t-200.5 59.5q-96 0 -185 -18.5t-194 -57.5zM319 33v178q0 37 35 37h117q37 0 37 -37v-178 q0 -35 -37 -35h-117q-14 0 -24.5 10t-10.5 25z" />
<glyph unicode="@" horiz-adv-x="1794" d="M133 72v639q0 156 88 273.5t322 117.5h383q156 0 253 -65.5t97 -250.5v-733h-125l-31 121q-4 -2 -110.5 -70.5t-268.5 -68.5q-123 0 -192.5 77.5t-69.5 188.5v90q0 125 76 192.5t215 67.5h346v123q0 88 -48 128t-140 40h-385q-117 0 -183.5 -54t-66.5 -188v-610 q0 -147 73.5 -212.5t176.5 -65.5h653q139 0 202.5 70.5t63.5 207.5v957q0 135 -69.5 213.5t-196.5 78.5h-811v125q74 14 248 24.5t368 10.5h195q184 0 305 -110.5t121 -341.5v-957q0 -217 -101.5 -328.5t-316.5 -111.5h-661q-183 0 -296.5 104.5t-113.5 317.5zM647 332 q0 -66 41 -101.5t117 -35.5q69 0 164.5 30.5t146.5 69.5v246l-309 -17q-72 -4 -116 -29.5t-44 -99.5v-63z" />
<glyph unicode="A" horiz-adv-x="1388" d="M59 0l504 1509h262l504 -1509h-215l-133 395h-578l-131 -395h-213zM453 582h477l-238 749z" />
<glyph unicode="B" horiz-adv-x="1251" d="M150 0v1509h561q401 0 401 -389q0 -135 -58.5 -223t-152.5 -113q104 -27 184 -116.5t80 -249.5q0 -227 -108.5 -322.5t-323.5 -95.5h-583zM356 184h371q117 0 179.5 60.5t62.5 208.5q0 113 -69 177t-173 64h-371v-510zM356 854h361q90 0 144 67.5t54 182.5 q0 221 -206 221h-353v-471z" />
<glyph unicode="C" horiz-adv-x="1191" d="M113 760q0 301 59 467t176 230.5t309 64.5q106 0 229.5 -17.5t217.5 -42.5v-155q-66 10 -180.5 20t-229.5 10q-145 0 -224 -46t-116 -170t-37 -363q0 -246 35 -370t113 -170t227 -46q248 0 412 25v-158q-205 -51 -455 -51q-194 0 -308 60.5t-171 227t-57 484.5z" />
<glyph unicode="D" horiz-adv-x="1378" d="M150 0v1509h610q272 0 389 -190.5t117 -564.5q0 -367 -128 -560.5t-378 -193.5h-610zM356 184h385q317 0 318 570q0 215 -34 340t-102.5 178t-181.5 53h-385v-1141z" />
<glyph unicode="E" horiz-adv-x="1208" d="M150 297v897q0 166 90 240.5t217 74.5q244 0 551 -16l92 -4v-170h-582q-162 0 -162 -162v-313l652 -13v-159l-652 -15v-309q0 -96 45 -130t121 -34h578v-170q-337 -22 -604 -22h-23q-135 0 -229 61.5t-94 243.5z" />
<glyph unicode="F" horiz-adv-x="1171" d="M150 0v1194q0 166 90 240.5t217 74.5q373 0 643 -22v-168h-586q-76 0 -117 -42t-41 -118v-350l652 -12v-160l-652 -12v-625h-206z" />
<glyph unicode="G" horiz-adv-x="1345" d="M113 758q0 266 45 431t159.5 249t319.5 84q248 0 493 -56v-157q-228 28 -443 28h-15q-143 0 -219 -56t-106 -180t-30 -345q0 -231 30 -354t100.5 -173.5t203.5 -50.5q158 0 346 68v399h-335v158q133 20 342 20q90 0 192 -8v-815h-154l-30 104q-84 -45 -195.5 -79.5 t-228.5 -34.5q-187 0 -290 84t-144 249.5t-41 434.5z" />
<glyph unicode="H" horiz-adv-x="1409" d="M150 0v1509h206v-678h699v678h205v-1509h-205v647h-699v-647h-206z" />
<glyph unicode="I" horiz-adv-x="505" d="M150 0v1509h206v-1509h-206z" />
<glyph unicode="J" horiz-adv-x="800" d="M55 33v162q127 -23 195 -23q96 0 145 44t49 155v1138h205v-1165q0 -188 -86 -272t-270 -84q-62 0 -127.5 13t-110.5 32z" />
<glyph unicode="K" horiz-adv-x="1265" d="M150 0v1509h206v-665h246l381 665h219l-438 -755l446 -754h-221l-389 659h-244v-659h-206z" />
<glyph unicode="L" horiz-adv-x="1091" d="M150 319v1190h206v-1159q0 -92 43 -127t119 -35h522v-188h-571q-156 0 -237.5 73.5t-81.5 245.5z" />
<glyph unicode="M" horiz-adv-x="1740" d="M109 0l172 1509h204l385 -1259l379 1259h207l176 -1509h-198l-138 1167l-331 -1167h-191l-336 1161l-131 -1161h-198z" />
<glyph unicode="N" horiz-adv-x="1411" d="M172 0v1509h168l739 -1157v1157h205v-1509h-166l-739 1157v-1157h-207z" />
<glyph unicode="O" horiz-adv-x="1413" d="M113 750q0 319 65.5 486t190.5 226.5t338 59.5q217 0 342 -59.5t189.5 -226.5t64.5 -486t-64.5 -483.5t-189.5 -221.5t-342 -57q-215 0 -340 57t-189.5 221t-64.5 484zM317 750q0 -248 36 -370t117 -165t237 -43q151 0 233 43t119 166t37 369q0 256 -37 380.5t-118 165.5 t-234 41q-147 0 -228.5 -42t-121.5 -166.5t-40 -378.5z" />
<glyph unicode="P" d="M150 0v1509h612q174 0 289.5 -102t115.5 -391q0 -291 -118.5 -398.5t-288.5 -107.5q-63 0 -191.5 8t-212.5 17v-535h-206zM356 694h375q229 0 230 320q0 311 -218 311h-387v-631z" />
<glyph unicode="Q" horiz-adv-x="1413" d="M113 750q0 319 65.5 486t190.5 226.5t338 59.5q217 0 342 -59.5t189.5 -226.5t64.5 -486t-64.5 -483.5t-189.5 -221.5t-342 -57q-215 0 -340 57t-189.5 221t-64.5 484zM317 750q0 -248 36 -370t117 -165t237 -43q151 0 233 43t119 166t37 369q0 256 -37 380.5t-118 165.5 t-234 41q-147 0 -228.5 -42t-121.5 -166.5t-40 -378.5zM690 -72h141q20 -70 77 -104.5t126 -34.5q51 0 115 18v-157q-66 -14 -107 -15q-135 0 -237.5 76t-114.5 217z" />
<glyph unicode="R" horiz-adv-x="1257" d="M150 0v1509h604q184 0 293.5 -97t109.5 -359q0 -211 -76.5 -301t-195.5 -123l301 -629h-209l-279 600l-280 4q-23 2 -62 2v-606h-206zM356 766h365q111 0 171 61.5t60 225.5q0 158 -61.5 215t-169.5 57h-365v-559z" />
<glyph unicode="S" horiz-adv-x="1191" d="M115 1036v84q0 209 113.5 305.5t338.5 96.5q98 0 225.5 -14.5t217.5 -30.5v-160l-43 2q-262 18 -377 18q-139 0 -209 -49t-70 -178v-61q0 -106 56.5 -151.5t169.5 -45.5h165q184 0 280.5 -99.5t96.5 -263.5v-106q0 -223 -129 -309t-364 -86q-105 0 -243 11t-218 30v159 q170 -16 453 -16q145 0 225 44t80 161v88q0 190 -203 190h-154q-203 0 -307 89.5t-104 291.5z" />
<glyph unicode="T" horiz-adv-x="1173" d="M33 1325v184h1108v-184h-451v-1325h-207v1325h-450z" />
<glyph unicode="U" horiz-adv-x="1390" d="M129 473v1036h207v-1034q0 -166 90 -233.5t268 -67.5q180 0 270.5 67.5t90.5 233.5v1034h207v-1036q0 -270 -145.5 -377.5t-422.5 -107.5q-276 0 -420.5 107.5t-144.5 377.5z" />
<glyph unicode="V" horiz-adv-x="1388" d="M59 1509h213l422 -1290l424 1290h211l-504 -1509h-262z" />
<glyph unicode="W" horiz-adv-x="2029" d="M59 1509h213l299 -1216l347 1216h198l342 -1216l301 1216h211l-379 -1509h-217l-358 1217l-361 -1217h-217z" />
<glyph unicode="X" horiz-adv-x="1302" d="M61 1509h226l375 -596l352 596h227l-471 -766l467 -743h-227l-367 584l-350 -584h-225l467 756z" />
<glyph unicode="Y" horiz-adv-x="1271" d="M61 1509h215l363 -813l365 813h206l-471 -1022v-487h-207v487z" />
<glyph unicode="Z" horiz-adv-x="1155" d="M86 0v166l743 1159h-743v184h993v-166l-743 -1159h743v-184h-993z" />
<glyph unicode="[" horiz-adv-x="686" d="M174 -33v1379q0 164 76 271t258 107h139v-165h-84q-184 0 -184 -242v-1340q0 -115 45 -178t139 -63h84v-166h-139q-195 0 -264.5 117.5t-69.5 279.5z" />
<glyph unicode="\" horiz-adv-x="862" d="M41 1577h205l575 -1724h-205z" />
<glyph unicode="]" horiz-adv-x="686" d="M41 -264h84q182 0 182 241v1340q0 242 -182 242h-84v165h139q182 0 258 -107.5t76 -270.5v-1379q0 -160 -70.5 -278.5t-263.5 -118.5h-139v166z" />
<glyph unicode="^" horiz-adv-x="806" d="M102 1087l242 277h143l220 -277h-123l-172 177l-187 -177h-123z" />
<glyph unicode="_" d="M0 -184h1247v-170h-1247v170z" />
<glyph unicode="`" horiz-adv-x="450" d="M41 1575h170l201 -283h-121z" />
<glyph unicode="a" horiz-adv-x="1118" d="M84 262v86q0 131 89 210t261 79h342v115q0 68 -22.5 109.5t-81 64t-166.5 22.5h-336v121q180 41 405 43q209 0 308.5 -81t99.5 -265v-766h-162l-35 123q-18 -16 -86.5 -49t-159.5 -59.5t-178 -26.5q-122 0 -200 73.5t-78 200.5zM291 297q0 -84 49 -122t121 -38 q49 0 118.5 17.5t130 39t66.5 25.5v316l-287 -13q-199 -12 -198 -176v-49z" />
<glyph unicode="b" horiz-adv-x="1187" d="M143 0v1563h205v-559q80 45 173 75.5t169 30.5q205 0 298 -132t93 -439q0 -270 -92 -410.5t-289 -140.5q-186 0 -352 121l-37 -109h-168zM348 236q68 -35 134.5 -56.5t146.5 -21.5q248 0 248 391q0 160 -32 246t-85 116.5t-131 30.5q-76 0 -142.5 -21.5t-138.5 -60.5 v-624z" />
<glyph unicode="c" horiz-adv-x="1003" d="M106 545q0 219 53.5 342t151 172t246.5 49q207 0 367 -35v-121h-310q-109 0 -172 -33.5t-96 -122.5t-33 -253q0 -160 34 -246t98.5 -119t170.5 -33h324v-116q-78 -18 -182.5 -29.5t-206.5 -11.5q-213 0 -329 122.5t-116 434.5z" />
<glyph unicode="d" horiz-adv-x="1181" d="M106 539q0 207 40 330.5t130.5 182t243.5 58.5q141 0 320 -59v512h204v-1563h-167l-37 109q-51 -45 -152.5 -83t-187.5 -38q-201 0 -297.5 132t-96.5 419zM313 549q0 -147 24.5 -232.5t80 -123t147.5 -37.5q128 0 275 82v665q-12 4 -65.5 19.5t-100.5 22.5t-92 7 q-100 0 -157.5 -35.5t-84.5 -122.5t-27 -245z" />
<glyph unicode="e" horiz-adv-x="1105" d="M106 549q0 221 44.5 342t144.5 170t278 49q156 0 248 -33t135 -112.5t43 -221.5q0 -145 -84 -209.5t-241 -64.5h-363q2 -125 28 -193.5t93.5 -99.5t194.5 -31h342v-122q-113 -16 -199 -25.5t-195 -9.5q-178 0 -279 51t-145.5 172t-44.5 338zM309 598h346q84 0 122 32 t38 111q0 123 -54 170t-188 47q-104 0 -160.5 -30.5t-80 -107.5t-23.5 -222z" />
<glyph unicode="f" horiz-adv-x="768" d="M45 928v133l164 35v108q0 190 74.5 280.5t255.5 90.5q102 0 215 -23v-147h-179q-94 0 -127.5 -45t-33.5 -146v-118h321v-168h-321v-928h-205v928h-164z" />
<glyph unicode="g" horiz-adv-x="1183" d="M55 -190q0 86 48.5 149.5t127.5 97.5q-51 27 -78.5 71t-27.5 97q0 80 48 131.5t136 69.5q-102 45 -146 129t-44 188q0 354 432 355h590v-117l-223 -23q55 -41 88.5 -96t33.5 -168q0 -145 -93 -239.5t-298 -94.5h-180q-168 0 -168 -102q0 -43 32 -63.5t77 -20.5h346 q190 0 285.5 -74.5t95.5 -234.5v-39q0 -158 -103.5 -244t-304.5 -86h-313q-162 0 -261.5 69.5t-99.5 198.5v46zM250 -154v-39q0 -163 216 -163h3h240q111 0 173 43t62 129v39q0 78 -51 119.5t-168 41.5h-264q-90 0 -150.5 -43t-60.5 -127zM305 731q0 -213 201 -213h121 q127 0 176 54.5t49 146.5q0 221 -211 221h-115q-109 0 -165 -49t-56 -160z" />
<glyph unicode="h" horiz-adv-x="1208" d="M143 0v1563h205v-586q78 57 180.5 97t204.5 40q170 0 254 -103.5t84 -271.5v-739h-205v715q0 96 -56 154.5t-151 58.5q-86 0 -156.5 -24.5t-154.5 -74.5v-829h-205z" />
<glyph unicode="i" horiz-adv-x="491" d="M135 1315v172q0 37 37 37h152q16 0 24 -10.5t8 -26.5v-172q0 -35 -32 -35h-152q-16 0 -26.5 9t-10.5 26zM143 0v1096h205v-1096h-205z" />
<glyph unicode="j" horiz-adv-x="491" d="M135 1315v172q0 37 35 37h154q16 0 24 -10.5t8 -26.5v-172q0 -35 -32 -35h-154q-14 0 -24.5 10t-10.5 25zM143 -485v1581h205v-1069q0 -139 -14.5 -277.5t-36.5 -234.5h-154z" />
<glyph unicode="k" horiz-adv-x="1067" d="M143 0v1563h205v-887h150l305 420h213l-367 -512l393 -584h-213l-337 492h-144v-492h-205z" />
<glyph unicode="l" horiz-adv-x="614" d="M143 352v1211h205v-1184q0 -121 34 -166t107 -55l103 -13v-147h-143q-156 0 -231 82t-75 272z" />
<glyph unicode="m" horiz-adv-x="1931" d="M143 0v1096h164l41 -119q92 63 187.5 100t209.5 37q98 0 170 -43t113 -117q82 63 200 111.5t222 48.5q176 0 260 -103.5t84 -279.5v-731h-205v713q0 98 -56 156.5t-153 58.5q-78 0 -162.5 -30t-162.5 -79q16 -55 16 -108v-711h-205v713q0 98 -55 156.5t-152 58.5 q-86 0 -156.5 -24.5t-154.5 -74.5v-829h-205z" />
<glyph unicode="n" horiz-adv-x="1208" d="M143 0v1096h164l41 -119q80 59 181.5 98t203.5 39q174 0 256 -105.5t82 -271.5v-737h-205v713q0 98 -55 156.5t-152 58.5q-86 0 -156.5 -24.5t-154.5 -74.5v-829h-205z" />
<glyph unicode="o" horiz-adv-x="1179" d="M106 549q0 225 51.5 347t155 168t277.5 46t277.5 -47t154.5 -169t51 -345q0 -221 -50 -343t-153.5 -170t-279.5 -48q-174 0 -278.5 49t-155 171t-50.5 341zM313 551q0 -172 30 -257t86 -111.5t161 -26.5q102 0 160.5 27.5t88 112.5t29.5 255t-29.5 255t-88 111.5 t-160.5 26.5q-104 0 -160.5 -26.5t-86.5 -111.5t-30 -255z" />
<glyph unicode="p" horiz-adv-x="1187" d="M143 -485v1581h168l37 -111q68 49 160 87t182 38q201 0 296 -153.5t95 -407.5q0 -281 -93 -422t-298 -141q-84 0 -175 25.5t-167 68.5v-565h-205zM348 236q63 -37 136 -57.5t145 -20.5q248 0 248 391q0 203 -69 298t-177 95q-131 0 -283 -82v-624z" />
<glyph unicode="q" horiz-adv-x="1181" d="M106 549q0 293 99.5 427t312.5 134q236 0 526 -33v-1562h-204v594q-76 -53 -167 -87t-173 -34q-215 0 -304.5 135t-89.5 426zM313 555q0 -150 23.5 -236t76 -124.5t140.5 -38.5q140 0 287 82v714h-267q-143 0 -201.5 -100t-58.5 -297z" />
<glyph unicode="r" horiz-adv-x="851" d="M143 0v1096h158l47 -185q78 94 164 146.5t193 52.5q55 0 98 -12v-211q-66 10 -123 10q-100 0 -176 -36t-156 -113v-748h-205z" />
<glyph unicode="s" horiz-adv-x="1026" d="M92 739v60q0 158 93.5 232.5t308.5 74.5q90 0 210.5 -11.5t186.5 -25.5v-123h-434q-96 0 -141.5 -32.5t-45.5 -114.5v-41q0 -78 44 -102.5t143 -24.5h164q154 0 234.5 -72t80.5 -205v-84q0 -158 -103.5 -220t-306.5 -62q-102 0 -234 9t-188 26v122h461q98 0 145.5 28 t47.5 112v45q0 131 -176 131h-160q-158 0 -244 64.5t-86 213.5z" />
<glyph unicode="t" horiz-adv-x="765" d="M35 928v133l178 35l31 307h162v-307h296v-168h-296v-561q0 -111 41.5 -154t105.5 -49l135 -12v-152h-166q-170 0 -248 84q-74 80 -73 262v19l8 563h-174z" />
<glyph unicode="u" horiz-adv-x="1208" d="M141 324v772h205v-717q0 -117 53.5 -163t161.5 -46q152 0 303 96v830h205v-1096h-164l-41 119q-205 -131 -399 -131q-158 0 -241 84t-83 252z" />
<glyph unicode="v" horiz-adv-x="1116" d="M35 1096h211l309 -906l317 906h209l-411 -1096h-238z" />
<glyph unicode="w" horiz-adv-x="1650" d="M35 1096h211l239 -906l258 906h175l258 -906l229 906h211l-316 -1096h-227l-246 813l-249 -813h-224z" />
<glyph unicode="x" horiz-adv-x="1060" d="M37 0l381 559l-381 537h209l293 -414l276 412l209 2l-381 -559l381 -537h-209l-293 412l-276 -412h-209z" />
<glyph unicode="y" horiz-adv-x="1126" d="M35 1096h215l221 -785q45 -139 154 -139l256 924h211l-377 -1379l-99 -202h-163l133 485q-106 2 -186.5 65.5t-118.5 202.5z" />
<glyph unicode="z" horiz-adv-x="1019" d="M84 928v168h852v-154l-598 -776h598v-166h-836v152l596 776h-612z" />
<glyph unicode="{" horiz-adv-x="638" d="M41 586v194q156 14 156 131v432q0 381 401 381v-165q-106 0 -150.5 -62.5t-44.5 -226.5v-391q0 -88 -51 -136.5t-135 -58.5q82 -14 133 -64.5t51 -123.5v-510q0 -141 44 -199.5t153 -58.5v-158q-229 0 -316 91t-87 261v533q0 63 -45.5 99t-108.5 32z" />
<glyph unicode="|" horiz-adv-x="516" d="M174 -147v1724h168v-1724h-168z" />
<glyph unicode="}" horiz-adv-x="638" d="M41 -272q109 0 153 58t44 200v510q0 74 51 124t135 64q-86 10 -137 58.5t-51 136.5v391q0 164 -44.5 226.5t-150.5 62.5v165q401 0 401 -381v-432q0 -117 156 -131v-194q-63 4 -108.5 -32t-45.5 -99v-533q0 -170 -87 -261t-316 -91v158z" />
<glyph unicode="~" horiz-adv-x="905" d="M102 1196q57 61 112.5 97t121.5 36q31 0 65.5 -16.5t77.5 -46.5q37 -25 61.5 -38.5t43.5 -13.5q86 0 190 97l31 -76q-55 -63 -107.5 -99t-115.5 -36q-35 0 -71 16.5t-81 46.5q-37 25 -61.5 37t-44.5 12q-47 0 -88 -20.5t-105 -67.5z" />
<glyph unicode="&#xa1;" horiz-adv-x="548" d="M174 -412l31 1096h149l27 -1096h-207zM184 885v178q0 35 37 35h117q16 0 25.5 -9.5t9.5 -25.5v-178q0 -37 -35 -37h-117q-37 0 -37 37z" />
<glyph unicode="&#xa2;" horiz-adv-x="997" d="M82 545q0 219 49 340t136 167t216 46v182h119v-184q141 -12 299 -60v-121q-127 25 -348 25q-96 0 -152.5 -29.5t-85 -116.5t-28.5 -255q0 -160 29.5 -244t88 -116t154.5 -32q201 0 356 33v-123q-84 -35 -155.5 -49t-159.5 -18v-170h-121v170q-188 2 -292.5 120.5 t-104.5 434.5z" />
<glyph unicode="&#xa3;" d="M127 0v156l213 28v488l-213 16v105l213 28v226q0 176 51 279.5t149.5 146.5t252.5 43q109 0 311 -23v-162h-303q-92 0 -146.5 -21.5t-82 -78.5t-27.5 -164v-246l420 -18v-115l-420 -16v-488h579v-184h-997z" />
<glyph unicode="&#xa4;" d="M152 348l188 189q-59 90 -59 192q0 106 59 195l-188 188l90 90l188 -188q88 61 193 61q106 0 194 -61l189 188l90 -90l-189 -188q61 -88 62 -195q-1 -104 -62 -192l189 -189l-90 -90l-189 188q-88 -61 -194 -61q-104 0 -193 61l-188 -188zM395 729q0 -94 66.5 -162.5 t161.5 -68.5q94 0 162.5 68.5t68.5 162.5q0 96 -67.5 164t-163.5 68q-94 0 -161 -68t-67 -164z" />
<glyph unicode="&#xa5;" d="M29 1509h215l362 -813l365 813h207l-398 -862h305v-115h-358l-20 -45v-106h378v-113h-378v-268h-207v268h-338v113h338v106l-21 45h-317v115h264z" />
<glyph unicode="&#xa6;" horiz-adv-x="516" d="M174 -147v671h168v-671h-168zM174 879v698h168v-698h-168z" />
<glyph unicode="&#xa7;" horiz-adv-x="1120" d="M102 696v99q0 92 33 135t109 63q-123 41 -123 215v123q0 274 344 275q115 0 260 -6.5t209 -18.5v-141h-440q-92 0 -134.5 -29t-42.5 -108v-84q0 -59 34 -82t112 -23h239q178 0 249 -52t71 -179v-99q0 -82 -32 -128t-103 -64q68 -16 93.5 -68.5t25.5 -130.5v-121 q0 -156 -91.5 -220t-267.5 -64q-112 0 -249.5 6t-209.5 16v144h420q115 0 156 30.5t41 94.5v92q0 41 -10.5 61.5t-41 29.5t-96.5 9h-241q-164 0 -239 50t-75 175zM299 741q0 -57 36 -84.5t126 -27.5h196q78 0 111 7t45 30.5t12 76.5v97q0 68 -33.5 91t-134.5 23h-196 q-92 0 -127 -24.5t-35 -93.5v-95z" />
<glyph unicode="&#xa8;" horiz-adv-x="837" d="M137 1362v172q0 37 35 37h94q35 0 35 -37v-172q0 -35 -35 -35h-94q-14 0 -24.5 10.5t-10.5 24.5zM537 1362v172q0 37 34 37h97q35 0 34 -37v-172q0 -16 -9 -25.5t-25 -9.5h-97q-14 0 -24 10.5t-10 24.5z" />
<glyph unicode="&#xa9;" horiz-adv-x="1703" d="M113 754q0 324 116.5 534.5t409.5 210.5h473q479 0 479 -745q0 -229 -55 -399.5t-163.5 -262.5t-260.5 -92h-473q-182 0 -300 109.5t-172 281.5t-54 363zM233 745q0 -166 45.5 -310t136.5 -233t224 -89h463q168 0 268 159.5t100 481.5q0 285 -78.5 460t-279.5 175h-473 q-180 0 -293 -145.5t-113 -498.5zM475 748q0 446 313 446q72 0 175.5 -10t181.5 -31v-94q-84 12 -175 18t-145 6q-117 0 -173 -77.5t-56 -264.5q0 -168 54.5 -247.5t172.5 -79.5q193 0 334 32v-96q-82 -31 -166 -40t-203 -9q-143 0 -228 98.5t-85 348.5z" />
<glyph unicode="&#xaa;" horiz-adv-x="837" d="M59 924v73q0 95 63.5 145t188.5 50h250v90q0 68 -40 99.5t-152 31.5h-248v103q141 35 311 36q156 0 233.5 -59t77.5 -199v-557h-143l-31 88q-14 -12 -63 -35.5t-113.5 -42t-126.5 -18.5q-92 0 -149.5 52.5t-57.5 142.5zM63 535v102h695v-102h-695zM225 958 q0 -57 34 -82.5t87 -25.5q47 0 128 23.5t87 29.5v217l-203 -10q-70 -2 -101.5 -34t-31.5 -85v-33z" />
<glyph unicode="&#xab;" horiz-adv-x="1257" d="M102 575l441 435l106 -107l-334 -328l342 -335l-106 -109zM614 575l441 435l106 -107l-334 -328l342 -335l-106 -109z" />
<glyph unicode="&#xac;" d="M164 891v168h917v-660h-168v492h-749z" />
<glyph unicode="&#xad;" horiz-adv-x="706" d="M49 510v168h608v-168h-608z" />
<glyph unicode="&#xae;" horiz-adv-x="1703" d="M113 754q0 324 116.5 534.5t409.5 210.5h473q479 0 479 -745q0 -229 -55 -399.5t-163.5 -262.5t-260.5 -92h-473q-182 0 -300 109.5t-172 281.5t-54 363zM233 745q0 -166 45.5 -310t136.5 -233t224 -89h463q168 0 268 159.5t100 481.5q0 285 -78.5 460t-279.5 175h-473 q-180 0 -293 -145.5t-113 -498.5zM539 313v875h372q119 0 191 -58.5t72 -209.5q0 -92 -27 -142.5t-63.5 -70t-92.5 -31.5l201 -363h-123l-197 367l-213 4v-371h-120zM659 772h254q74 0 107 28.5t33 117.5q0 88 -35 123.5t-105 35.5h-254v-305z" />
<glyph unicode="&#xaf;" horiz-adv-x="755" d="M102 1360v123h553v-123h-553z" />
<glyph unicode="&#xb0;" horiz-adv-x="667" d="M57 1286q0 123 79 201t200 78t197.5 -78t76.5 -201t-76.5 -200.5t-197.5 -77.5t-200 77.5t-79 200.5zM154 1286q0 -80 51 -131t131 -51q78 0 128 50t50 132q0 80 -50 131t-128 51q-80 0 -131 -51t-51 -131z" />
<glyph unicode="&#xb1;" d="M164 235v168h917v-168h-917zM164 952v168h375v375h168v-375h374v-168h-374v-375h-168v375h-375z" />
<glyph unicode="&#xb2;" horiz-adv-x="929" d="M96 573v136l381 378q80 76 116 142.5t36 142.5q0 72 -44 111t-153 39h-303v137q106 14 179 21.5t161 7.5q186 0 265 -75t79 -218q0 -111 -44 -196t-155 -195l-276 -271h512v-160h-754z" />
<glyph unicode="&#xb3;" horiz-adv-x="929" d="M82 592v137h348q100 0 151.5 31t51.5 106v56q0 68 -47 97.5t-121 33.5l-275 10v133l267 14q80 4 120.5 32t40.5 85v57q0 70 -47 104t-149 34h-309v139q168 29 376 27q147 0 227.5 -70t80.5 -197v-88q0 -86 -44 -136t-106 -67q68 -18 118 -74.5t50 -148.5v-67 q0 -131 -87 -203t-241 -72q-245 0 -405 27z" />
<glyph unicode="&#xb4;" horiz-adv-x="450" d="M41 1292l199 283h172l-250 -283h-121z" />
<glyph unicode="&#xb5;" horiz-adv-x="1208" />
<glyph unicode="&#xb6;" horiz-adv-x="1173" d="M70 940v283q0 139 94 212.5t237 73.5h752v-145h-147v-1364h-142v1368h-178v-1921h-141v1212q-16 -12 -57.5 -20t-100.5 -6q-154 0 -235.5 87t-81.5 220zM211 961q0 -111 63.5 -149t135.5 -38h135v594h-135q-199 0 -199 -178v-229z" />
<glyph unicode="&#xb7;" horiz-adv-x="534" d="M174 688v123q0 37 35 37h117q37 0 36 -37v-123q0 -35 -36 -35h-117q-14 0 -24.5 10.5t-10.5 24.5z" />
<glyph unicode="&#xb8;" horiz-adv-x="520" d="M102 -309l43 4q104 12 105 86q0 78 -123 86l106 164h95l-90 -140q145 -12 145 -133q0 -74 -52 -112.5t-151 -38.5h-78v84z" />
<glyph unicode="&#xb9;" horiz-adv-x="929" d="M131 573v158h260v787l-244 -50v129l263 93h163v-959h261v-158h-703z" />
<glyph unicode="&#xba;" horiz-adv-x="880" d="M74 1139q0 166 38 254t115.5 122.5t212.5 34.5q133 0 212 -34.5t117 -123.5t38 -253q0 -162 -37 -250t-116 -124t-214 -36q-133 0 -211.5 37t-116.5 126t-38 247zM90 535v102h701v-102h-701zM254 1141q0 -121 19.5 -180.5t58.5 -79t108 -19.5q68 0 107 19.5t59.5 79 t20.5 180.5t-20.5 180t-59.5 77.5t-107 18.5q-70 0 -108.5 -18.5t-58 -77.5t-19.5 -180z" />
<glyph unicode="&#xbb;" horiz-adv-x="1257" d="M92 903l111 107l444 -441l-446 -438l-103 109l334 329zM604 903l111 107l444 -441l-446 -438l-103 109l334 329z" />
<glyph unicode="&#xbc;" horiz-adv-x="2611" d="M143 573v158h260v787l-244 -50v129l263 93h163v-959h261v-158h-703zM848 0l766 1577h147l-766 -1577h-147zM1687 373l377 733h180l-356 -700h330v221l43 147h129v-368h133v-121l-133 -29v-254h-172v254h-504z" />
<glyph unicode="&#xbd;" horiz-adv-x="2611" d="M143 573v158h260v787l-244 -50v129l263 93h163v-959h261v-158h-703zM848 0l766 1577h147l-766 -1577h-147zM1724 0v135l381 379q80 76 116 142.5t36 142.5q0 72 -44 110.5t-153 38.5h-303v137q106 14 179 21.5t161 7.5q186 0 265 -74.5t79 -218.5q0 -111 -44 -195.5 t-155 -195.5l-276 -270h512v-160h-754z" />
<glyph unicode="&#xbe;" horiz-adv-x="2611" d="M102 592v137h348q100 0 151.5 31t51.5 106v56q0 68 -47 97.5t-121 33.5l-275 10v133l267 14q80 4 120.5 32t40.5 85v57q0 70 -47 104t-149 34h-309v139q168 29 376 27q147 0 227.5 -70t80.5 -197v-88q0 -86 -44 -136t-106 -67q68 -18 118 -74.5t50 -148.5v-67 q0 -131 -87 -203t-241 -72q-245 0 -405 27zM848 0l766 1577h147l-766 -1577h-147zM1687 373l377 733h180l-356 -700h330v221l43 147h129v-368h133v-121l-133 -29v-254h-172v254h-504z" />
<glyph unicode="&#xbf;" horiz-adv-x="1085" d="M147 -10v139q0 186 107.5 277.5t339.5 91.5v188h158v-348h-115q-152 0 -218.5 -47t-66.5 -166v-105q0 -135 63.5 -194t200.5 -59q96 0 185.5 18t193.5 57v-149q-190 -111 -440 -111q-211 0 -309.5 107.5t-98.5 300.5zM578 885v178q0 35 36 35h117q17 0 26 -9.5t9 -25.5 v-178q0 -37 -35 -37h-117q-37 0 -36 37z" />
<glyph unicode="&#xc0;" horiz-adv-x="1388" d="M59 0l504 1509h262l504 -1509h-215l-133 395h-578l-131 -395h-213zM401 1903h170l201 -283h-121zM453 582h477l-238 749z" />
<glyph unicode="&#xc1;" horiz-adv-x="1388" d="M59 0l504 1509h262l504 -1509h-215l-133 395h-578l-131 -395h-213zM453 582h477l-238 749zM641 1620l199 283h172l-250 -283h-121z" />
<glyph unicode="&#xc2;" horiz-adv-x="1388" d="M59 0l504 1509h262l504 -1509h-215l-133 395h-578l-131 -395h-213zM385 1620l242 281h143l219 -281h-123l-172 186l-186 -186h-123zM453 582h477l-238 749z" />
<glyph unicode="&#xc3;" horiz-adv-x="1388" d="M59 0l504 1509h262l504 -1509h-215l-133 395h-578l-131 -395h-213zM329 1640q4 121 61.5 177.5t139.5 56.5q47 0 88 -16.5t92 -47.5q45 -27 74 -39t59 -12q51 0 81 32t32 91h105q-2 -115 -55.5 -177.5t-147.5 -62.5q-45 0 -85 16.5t-91 47.5q-43 27 -75 40t-63 13 q-47 0 -77.5 -30.5t-32.5 -88.5h-105zM453 582h477l-238 749z" />
<glyph unicode="&#xc4;" horiz-adv-x="1388" d="M59 0l504 1509h262l504 -1509h-215l-133 395h-578l-131 -395h-213zM360 1690v172q0 37 35 36h96q35 0 35 -36v-172q0 -16 -9 -25.5t-26 -9.5h-96q-16 0 -25.5 10t-9.5 25zM453 582h477l-238 749zM827 1690v172q0 37 37 36h94q35 0 35 -36v-172q0 -16 -9 -25.5t-26 -9.5 h-94q-16 0 -26.5 10t-10.5 25z" />
<glyph unicode="&#xc5;" horiz-adv-x="1388" d="M59 0l504 1509h262l504 -1509h-215l-133 395h-578l-131 -395h-213zM453 582h477l-238 749zM457 1790q0 121 58 173t179 52q119 0 175.5 -51t56.5 -174t-56.5 -173t-175.5 -50q-121 0 -179 51t-58 172zM555 1790q0 -80 32.5 -110.5t106.5 -30.5q72 0 102.5 30.5 t30.5 110.5t-30.5 111.5t-102.5 31.5q-74 0 -106.5 -31.5t-32.5 -111.5z" />
<glyph unicode="&#xc6;" horiz-adv-x="1984" d="M59 0l695 1198q90 168 206.5 239.5t305.5 71.5q240 0 608 -22v-168h-569q-78 0 -110 -31t-32 -98v-346l621 -13v-159l-621 -15v-309q0 -92 46 -128t139 -36h526v-168q-352 -25 -574 -24q-155 0 -235 56t-88 192v153h-473l-242 -393h-203zM596 569h381v658z" />
<glyph unicode="&#xc7;" horiz-adv-x="1191" d="M113 760q0 301 59 467t176 230.5t309 64.5q106 0 229.5 -17.5t217.5 -42.5v-155q-66 10 -180.5 20t-229.5 10q-145 0 -224 -46t-116 -170t-37 -363q0 -246 35 -370t113 -170t227 -46q248 0 412 25v-158q-164 -41 -365 -49l-63 -99q145 -12 145 -133q0 -74 -52 -112.5 t-151 -38.5h-77v84l43 4q104 12 104 86q0 78 -123 86l78 121q-193 2 -304.5 62.5t-168.5 227t-57 482.5z" />
<glyph unicode="&#xc8;" horiz-adv-x="1208" d="M150 297v897q0 166 90 240.5t217 74.5q244 0 551 -16l92 -4v-170h-582q-162 0 -162 -162v-313l652 -13v-159l-652 -15v-309q0 -96 45 -130t121 -34h578v-170q-352 -23 -627 -22q-135 0 -229 61.5t-94 243.5zM348 1903h170l201 -283h-121z" />
<glyph unicode="&#xc9;" horiz-adv-x="1208" d="M150 297v897q0 166 90 240.5t217 74.5q244 0 551 -16l92 -4v-170h-582q-162 0 -162 -162v-313l652 -13v-159l-652 -15v-309q0 -96 45 -130t121 -34h578v-170q-352 -23 -627 -22q-135 0 -229 61.5t-94 243.5zM588 1620l199 283h172l-250 -283h-121z" />
<glyph unicode="&#xca;" horiz-adv-x="1208" d="M150 297v897q0 166 90 240.5t217 74.5q244 0 551 -16l92 -4v-170h-582q-162 0 -162 -162v-313l652 -13v-159l-652 -15v-309q0 -96 45 -130t121 -34h578v-170q-352 -23 -627 -22q-135 0 -229 61.5t-94 243.5zM332 1620l242 281h143l219 -281h-123l-172 186l-186 -186h-123 z" />
<glyph unicode="&#xcb;" horiz-adv-x="1208" d="M150 297v897q0 166 90 240.5t217 74.5q244 0 551 -16l92 -4v-170h-582q-162 0 -162 -162v-313l652 -13v-159l-652 -15v-309q0 -96 45 -130t121 -34h578v-170q-352 -23 -627 -22q-135 0 -229 61.5t-94 243.5zM307 1690v172q0 37 35 36h96q35 0 35 -36v-172q0 -16 -9 -25.5 t-26 -9.5h-96q-16 0 -25.5 10t-9.5 25zM774 1690v172q0 37 37 36h94q35 0 35 -36v-172q0 -16 -9 -25.5t-26 -9.5h-94q-16 0 -26.5 10t-10.5 25z" />
<glyph unicode="&#xcc;" horiz-adv-x="505" d="M-39 1903h170l201 -283h-121zM150 0v1509h206v-1509h-206z" />
<glyph unicode="&#xcd;" horiz-adv-x="505" d="M150 0v1509h206v-1509h-206zM201 1620l199 283h172l-250 -283h-121z" />
<glyph unicode="&#xce;" horiz-adv-x="505" d="M-55 1620l242 281h143l219 -281h-123l-172 186l-186 -186h-123zM150 0v1509h206v-1509h-206z" />
<glyph unicode="&#xcf;" horiz-adv-x="505" d="M-80 1690v172q0 37 35 36h96q35 0 35 -36v-172q0 -16 -9 -25.5t-26 -9.5h-96q-16 0 -25.5 10t-9.5 25zM150 0v1509h206v-1509h-206zM387 1690v172q0 37 37 36h94q35 0 35 -36v-172q0 -16 -9 -25.5t-26 -9.5h-94q-16 0 -26.5 10t-10.5 25z" />
<glyph unicode="&#xd0;" horiz-adv-x="1378" d="M29 694v137h121v678h610q272 0 389 -190.5t117 -564.5q0 -367 -128 -560.5t-378 -193.5h-610v694h-121zM356 184h385q318 1 318 570q0 215 -34 340t-102.5 178t-181.5 53h-385v-494h314v-137h-314v-510z" />
<glyph unicode="&#xd1;" horiz-adv-x="1411" d="M172 0v1509h168l739 -1157v1157h205v-1509h-166l-739 1157v-1157h-207zM335 1640q4 121 61.5 177.5t139.5 56.5q47 0 88 -16.5t92 -47.5q45 -27 74 -39t59 -12q51 0 81 32t32 91h105q-2 -115 -55.5 -177.5t-147.5 -62.5q-45 0 -85 16.5t-91 47.5q-43 27 -75 40t-63 13 q-47 0 -77.5 -30.5t-32.5 -88.5h-105z" />
<glyph unicode="&#xd2;" horiz-adv-x="1413" d="M113 750q0 319 65.5 486t190.5 226.5t338 59.5q217 0 342 -59.5t189.5 -226.5t64.5 -486t-64.5 -483.5t-189.5 -221.5t-342 -57q-215 0 -340 57t-189.5 221t-64.5 484zM317 750q0 -248 36 -370t117 -165t237 -43q151 0 233 43t119 166t37 369q0 256 -37 380.5t-118 165.5 t-234 41q-147 0 -228.5 -42t-121.5 -166.5t-40 -378.5zM415 1903h170l201 -283h-121z" />
<glyph unicode="&#xd3;" horiz-adv-x="1413" d="M113 750q0 319 65.5 486t190.5 226.5t338 59.5q217 0 342 -59.5t189.5 -226.5t64.5 -486t-64.5 -483.5t-189.5 -221.5t-342 -57q-215 0 -340 57t-189.5 221t-64.5 484zM317 750q0 -248 36 -370t117 -165t237 -43q151 0 233 43t119 166t37 369q0 256 -37 380.5t-118 165.5 t-234 41q-147 0 -228.5 -42t-121.5 -166.5t-40 -378.5zM655 1620l199 283h172l-250 -283h-121z" />
<glyph unicode="&#xd4;" horiz-adv-x="1413" d="M113 750q0 319 65.5 486t190.5 226.5t338 59.5q217 0 342 -59.5t189.5 -226.5t64.5 -486t-64.5 -483.5t-189.5 -221.5t-342 -57q-215 0 -340 57t-189.5 221t-64.5 484zM317 750q0 -248 36 -370t117 -165t237 -43q151 0 233 43t119 166t37 369q0 256 -37 380.5t-118 165.5 t-234 41q-147 0 -228.5 -42t-121.5 -166.5t-40 -378.5zM399 1620l242 281h143l219 -281h-123l-172 186l-186 -186h-123z" />
<glyph unicode="&#xd5;" horiz-adv-x="1413" d="M113 750q0 319 65.5 486t190.5 226.5t338 59.5q217 0 342 -59.5t189.5 -226.5t64.5 -486t-64.5 -483.5t-189.5 -221.5t-342 -57q-215 0 -340 57t-189.5 221t-64.5 484zM317 750q0 -248 36 -370t117 -165t237 -43q151 0 233 43t119 166t37 369q0 256 -37 380.5t-118 165.5 t-234 41q-147 0 -228.5 -42t-121.5 -166.5t-40 -378.5zM346 1640q4 121 61.5 177.5t139.5 56.5q47 0 88 -16.5t92 -47.5q45 -27 74 -39t59 -12q51 0 81 32t32 91h105q-2 -115 -55.5 -177.5t-147.5 -62.5q-45 0 -85 16.5t-91 47.5q-43 27 -75 40t-63 13q-47 0 -77.5 -30.5 t-32.5 -88.5h-105z" />
<glyph unicode="&#xd6;" horiz-adv-x="1413" d="M113 750q0 319 65.5 486t190.5 226.5t338 59.5q217 0 342 -59.5t189.5 -226.5t64.5 -486t-64.5 -483.5t-189.5 -221.5t-342 -57q-215 0 -340 57t-189.5 221t-64.5 484zM317 750q0 -248 36 -370t117 -165t237 -43q151 0 233 43t119 166t37 369q0 256 -37 380.5t-118 165.5 t-234 41q-147 0 -228.5 -42t-121.5 -166.5t-40 -378.5zM374 1690v172q0 37 35 36h96q35 0 35 -36v-172q0 -16 -9 -25.5t-26 -9.5h-96q-16 0 -25.5 10t-9.5 25zM841 1690v172q0 37 37 36h94q35 0 35 -36v-172q0 -16 -9 -25.5t-26 -9.5h-94q-16 0 -26.5 10t-10.5 25z" />
<glyph unicode="&#xd7;" d="M238 465l264 264l121 -121l-265 -264zM238 993l120 121l265 -264l-121 -121zM623 608l120 121l265 -264l-121 -121zM623 850l264 264l121 -121l-265 -264z" />
<glyph unicode="&#xd8;" horiz-adv-x="1413" d="M113 750q0 319 65.5 486t190.5 226.5t338 59.5q129 0 221 -18.5t159 -63.5l48 69h143l-102 -153q63 -88 95 -235.5t32 -370.5q0 -319 -64.5 -483.5t-189.5 -221.5t-342 -57q-129 0 -221.5 17.5t-159.5 62.5l-45 -68h-144l101 152q-63 86 -94 230t-31 368zM317 750 q1 -279 48 -406l612 926q-43 39 -107.5 53t-162.5 14q-147 0 -228.5 -42t-121.5 -166.5t-40 -378.5zM438 238q43 -37 107.5 -51.5t161.5 -14.5q151 0 233 43t119 166t37 369q0 285 -47 411z" />
<glyph unicode="&#xd9;" horiz-adv-x="1390" d="M129 473v1036h207v-1034q0 -166 90 -233.5t268 -67.5q180 0 270.5 67.5t90.5 233.5v1034h207v-1036q0 -270 -145.5 -377.5t-422.5 -107.5q-276 0 -420.5 107.5t-144.5 377.5zM393 1903h170l201 -283h-121z" />
<glyph unicode="&#xda;" horiz-adv-x="1390" d="M129 473v1036h207v-1034q0 -166 90 -233.5t268 -67.5q180 0 270.5 67.5t90.5 233.5v1034h207v-1036q0 -270 -145.5 -377.5t-422.5 -107.5q-276 0 -420.5 107.5t-144.5 377.5zM633 1620l199 283h172l-250 -283h-121z" />
<glyph unicode="&#xdb;" horiz-adv-x="1390" d="M129 473v1036h207v-1034q0 -166 90 -233.5t268 -67.5q180 0 270.5 67.5t90.5 233.5v1034h207v-1036q0 -270 -145.5 -377.5t-422.5 -107.5q-276 0 -420.5 107.5t-144.5 377.5zM377 1620l242 281h143l219 -281h-123l-172 186l-186 -186h-123z" />
<glyph unicode="&#xdc;" horiz-adv-x="1390" d="M129 473v1036h207v-1034q0 -166 90 -233.5t268 -67.5q180 0 270.5 67.5t90.5 233.5v1034h207v-1036q0 -270 -145.5 -377.5t-422.5 -107.5q-276 0 -420.5 107.5t-144.5 377.5zM352 1690v172q0 37 35 36h96q35 0 35 -36v-172q0 -16 -9 -25.5t-26 -9.5h-96q-16 0 -25.5 10 t-9.5 25zM819 1690v172q0 37 37 36h94q35 0 35 -36v-172q0 -16 -9 -25.5t-26 -9.5h-94q-16 0 -26.5 10t-10.5 25z" />
<glyph unicode="&#xdd;" horiz-adv-x="1271" d="M61 1509h215l363 -813l365 813h206l-471 -1022v-487h-207v487zM588 1620l199 283h172l-250 -283h-121z" />
<glyph unicode="&#xde;" horiz-adv-x="1163" d="M150 0v1509h206v-266h322q174 0 289.5 -96t115.5 -367q0 -274 -118.5 -374.5t-288.5 -100.5q-47 0 -150.5 9.5t-169.5 17.5v-332h-206zM356 492h291q229 0 230 288q0 276 -218 277h-303v-565z" />
<glyph unicode="&#xdf;" horiz-adv-x="1208" d="M123 0v1114q0 203 122 330t363 127q236 0 346.5 -98.5t110.5 -260.5q0 -94 -43 -159.5t-123 -143.5q-59 -59 -86 -96t-27 -80q0 -49 38 -76.5t116 -58.5q74 -31 118 -57.5t75.5 -73.5t31.5 -119v-59q0 -154 -104.5 -228.5t-249.5 -74.5q-92 0 -182 9t-144 21v138 q139 -8 277 -9q113 0 160 46.5t47 101.5v41q0 51 -39 77.5t-121 59.5q-72 29 -115 52.5t-73.5 66.5t-30.5 108q0 76 37 134.5t110 134.5q66 68 99.5 119t33.5 114q0 201 -262 201q-281 0 -280 -305v-1096h-205z" />
<glyph unicode="&#xe0;" horiz-adv-x="1118" d="M84 262v86q0 131 89 210t261 79h342v115q0 68 -22.5 109.5t-81 64t-166.5 22.5h-336v121q180 41 405 43q209 0 308.5 -81t99.5 -265v-766h-162l-35 123q-18 -16 -86.5 -49t-159.5 -59.5t-178 -26.5q-122 0 -200 73.5t-78 200.5zM285 1575h170l201 -283h-121zM291 297 q0 -84 49 -122t121 -38q49 0 118.5 17.5t130 39t66.5 25.5v316l-287 -13q-199 -12 -198 -176v-49z" />
<glyph unicode="&#xe1;" horiz-adv-x="1118" d="M84 262v86q0 131 89 210t261 79h342v115q0 68 -22.5 109.5t-81 64t-166.5 22.5h-336v121q180 41 405 43q209 0 308.5 -81t99.5 -265v-766h-162l-35 123q-18 -16 -86.5 -49t-159.5 -59.5t-178 -26.5q-122 0 -200 73.5t-78 200.5zM291 297q0 -84 49 -122t121 -38 q49 0 118.5 17.5t130 39t66.5 25.5v316l-287 -13q-199 -12 -198 -176v-49zM479 1292l199 283h172l-250 -283h-121z" />
<glyph unicode="&#xe2;" horiz-adv-x="1118" d="M84 262v86q0 131 89 210t261 79h342v115q0 68 -22.5 109.5t-81 64t-166.5 22.5h-336v121q180 41 405 43q209 0 308.5 -81t99.5 -265v-766h-162l-35 123q-18 -16 -86.5 -49t-159.5 -59.5t-178 -26.5q-122 0 -200 73.5t-78 200.5zM245 1292l242 281h143l220 -281h-123 l-172 187l-187 -187h-123zM291 297q0 -84 49 -122t121 -38q49 0 118.5 17.5t130 39t66.5 25.5v316l-287 -13q-199 -12 -198 -176v-49z" />
<glyph unicode="&#xe3;" horiz-adv-x="1118" d="M84 262v86q0 131 89 210t261 79h342v115q0 68 -22.5 109.5t-81 64t-166.5 22.5h-336v121q180 41 405 43q209 0 308.5 -81t99.5 -265v-766h-162l-35 123q-18 -16 -86.5 -49t-159.5 -59.5t-178 -26.5q-122 0 -200 73.5t-78 200.5zM207 1313q4 121 61.5 177t139.5 56 q47 0 88 -16.5t92 -46.5q45 -27 73.5 -39t59.5 -12q51 0 81 31.5t32 90.5h104q-2 -115 -55 -177t-147 -62q-45 0 -85 16.5t-92 46.5q-43 27 -74.5 40.5t-62.5 13.5q-47 0 -77.5 -31t-32.5 -88h-105zM291 297q0 -84 49 -122t121 -38q49 0 118.5 17.5t130 39t66.5 25.5v316 l-287 -13q-199 -12 -198 -176v-49z" />
<glyph unicode="&#xe4;" horiz-adv-x="1118" d="M84 262v86q0 131 89 210t261 79h342v115q0 68 -22.5 109.5t-81 64t-166.5 22.5h-336v121q180 41 405 43q209 0 308.5 -81t99.5 -265v-766h-162l-35 123q-18 -16 -86.5 -49t-159.5 -59.5t-178 -26.5q-122 0 -200 73.5t-78 200.5zM264 1362v172q0 37 37 37h94q35 0 35 -37 v-172q0 -35 -35 -35h-94q-16 0 -26.5 10.5t-10.5 24.5zM291 297q0 -84 49 -122t121 -38q49 0 118.5 17.5t130 39t66.5 25.5v316l-287 -13q-199 -12 -198 -176v-49zM666 1362v172q0 37 35 37h96q35 0 35 -37v-172q0 -16 -9.5 -25.5t-25.5 -9.5h-96q-17 0 -26 10.5t-9 24.5z " />
<glyph unicode="&#xe5;" horiz-adv-x="1118" d="M84 262v86q0 131 89 210t261 79h342v115q0 68 -22.5 109.5t-81 64t-166.5 22.5h-336v121q180 41 405 43q209 0 308.5 -81t99.5 -265v-766h-162l-35 123q-18 -16 -86.5 -49t-159.5 -59.5t-178 -26.5q-122 0 -200 73.5t-78 200.5zM291 297q0 -84 49 -122t121 -38 q49 0 118.5 17.5t130 39t66.5 25.5v316l-287 -13q-199 -12 -198 -176v-49zM317 1434q0 121 58.5 173t179.5 52q119 0 175 -51.5t56 -173.5q0 -123 -56 -173.5t-175 -50.5q-121 0 -179.5 51.5t-58.5 172.5zM416 1434q0 -80 32.5 -111t106.5 -31q72 0 102.5 31t30.5 111 t-30.5 111.5t-102.5 31.5q-74 0 -106.5 -32t-32.5 -111z" />
<glyph unicode="&#xe6;" horiz-adv-x="1785" d="M88 268v76q0 129 87 206t257 77h348v129q0 92 -58 142t-194 50h-354v121q86 20 170 30.5t205 12.5q121 0 213 -44t131 -126q43 88 132 128t222 40q150 0 242 -34t137 -114.5t45 -224.5q0 -137 -84 -192.5t-254 -55.5h-352q0 -201 86 -272.5t252 -71.5h321v-122 q-172 -35 -413 -35q-143 0 -237.5 59t-143.5 150q-84 -88 -208 -148.5t-265 -60.5q-142 0 -213.5 76.5t-71.5 203.5zM295 301q0 -164 166 -164q92 0 181 41t161 115q-25 102 -25 227l-309 -12q-90 -2 -132 -47t-42 -115v-45zM981 623h348q78 0 117 25.5t39 92.5 q0 117 -57.5 164t-194.5 47q-100 0 -153.5 -27.5t-75 -97t-23.5 -204.5z" />
<glyph unicode="&#xe7;" horiz-adv-x="1003" d="M106 545q0 219 53.5 342t151 172t246.5 49q207 0 367 -35v-121h-310q-109 0 -172 -33.5t-96 -122.5t-33 -253q0 -160 34 -246t98.5 -119t170.5 -33h324v-116q-146 -35 -334 -41l-63 -97q145 -12 145 -133q0 -74 -52 -112.5t-151 -38.5h-77v84l43 4q104 12 104 86 q0 78 -123 86l80 121q-195 10 -300.5 135t-105.5 422z" />
<glyph unicode="&#xe8;" horiz-adv-x="1105" d="M106 549q0 221 44.5 342t144.5 170t278 49q156 0 248 -33t135 -112.5t43 -221.5q0 -145 -84 -209.5t-241 -64.5h-363q2 -125 28 -193.5t93.5 -99.5t194.5 -31h342v-122q-113 -16 -199 -25.5t-195 -9.5q-178 0 -279 51t-145.5 172t-44.5 338zM285 1575h170l201 -283h-121z M309 598h346q84 0 122 32t38 111q0 123 -54 170t-188 47q-104 0 -160.5 -30.5t-80 -107.5t-23.5 -222z" />
<glyph unicode="&#xe9;" horiz-adv-x="1105" d="M106 549q0 221 44.5 342t144.5 170t278 49q156 0 248 -33t135 -112.5t43 -221.5q0 -145 -84 -209.5t-241 -64.5h-363q2 -125 28 -193.5t93.5 -99.5t194.5 -31h342v-122q-113 -16 -199 -25.5t-195 -9.5q-178 0 -279 51t-145.5 172t-44.5 338zM309 598h346q84 0 122 32 t38 111q0 123 -54 170t-188 47q-104 0 -160.5 -30.5t-80 -107.5t-23.5 -222zM479 1292l199 283h172l-250 -283h-121z" />
<glyph unicode="&#xea;" horiz-adv-x="1105" d="M106 549q0 221 44.5 342t144.5 170t278 49q156 0 248 -33t135 -112.5t43 -221.5q0 -145 -84 -209.5t-241 -64.5h-363q2 -125 28 -193.5t93.5 -99.5t194.5 -31h342v-122q-113 -16 -199 -25.5t-195 -9.5q-178 0 -279 51t-145.5 172t-44.5 338zM245 1292l242 281h143 l220 -281h-123l-172 187l-187 -187h-123zM309 598h346q84 0 122 32t38 111q0 123 -54 170t-188 47q-104 0 -160.5 -30.5t-80 -107.5t-23.5 -222z" />
<glyph unicode="&#xeb;" horiz-adv-x="1105" d="M106 549q0 221 44.5 342t144.5 170t278 49q156 0 248 -33t135 -112.5t43 -221.5q0 -145 -84 -209.5t-241 -64.5h-363q2 -125 28 -193.5t93.5 -99.5t194.5 -31h342v-122q-113 -16 -199 -25.5t-195 -9.5q-178 0 -279 51t-145.5 172t-44.5 338zM264 1362v172q0 37 37 37h94 q35 0 35 -37v-172q0 -35 -35 -35h-94q-16 0 -26.5 10.5t-10.5 24.5zM309 598h346q84 0 122 32t38 111q0 123 -54 170t-188 47q-104 0 -160.5 -30.5t-80 -107.5t-23.5 -222zM666 1362v172q0 37 35 37h96q35 0 35 -37v-172q0 -16 -9.5 -25.5t-25.5 -9.5h-96q-17 0 -26 10.5 t-9 24.5z" />
<glyph unicode="&#xec;" horiz-adv-x="487" d="M-22 1575h170l201 -283h-121zM143 0v1096h205v-1096h-205z" />
<glyph unicode="&#xed;" horiz-adv-x="487" d="M143 0v1096h205v-1096h-205zM172 1292l199 283h172l-250 -283h-121z" />
<glyph unicode="&#xee;" horiz-adv-x="487" d="M-62 1292l242 281h143l220 -281h-123l-172 187l-187 -187h-123zM143 0v1096h205v-1096h-205z" />
<glyph unicode="&#xef;" horiz-adv-x="487" d="M-43 1362v172q0 37 37 37h94q35 0 35 -37v-172q0 -35 -35 -35h-94q-16 0 -26.5 10.5t-10.5 24.5zM143 0v1096h205v-1096h-205zM359 1362v172q0 37 35 37h96q35 0 35 -37v-172q0 -16 -9.5 -25.5t-25.5 -9.5h-96q-17 0 -26 10.5t-9 24.5z" />
<glyph unicode="&#xf0;" horiz-adv-x="1179" d="M106 541q0 219 53.5 338.5t152 165t251.5 45.5q195 0 285 -82q-47 193 -162 295l-328 -127l-26 71l280 111q-123 72 -321 84v127q319 -16 491 -146l256 101l29 -74l-219 -84q115 -117 170 -316.5t55 -500.5q0 -221 -50 -343t-153.5 -170t-279.5 -48q-174 0 -278.5 48 t-155 169t-50.5 336zM313 541q0 -168 30 -250t86 -108.5t161 -26.5q102 0 160.5 26.5t88 108.5t29.5 250q0 166 -29.5 248.5t-88 109.5t-160.5 27t-159.5 -27t-87.5 -109.5t-30 -248.5z" />
<glyph unicode="&#xf1;" horiz-adv-x="1208" d="M143 0v1096h164l41 -119q80 59 181.5 98t203.5 39q174 0 256 -105.5t82 -271.5v-737h-205v713q0 98 -55 156.5t-152 58.5q-86 0 -156.5 -24.5t-154.5 -74.5v-829h-205zM258 1313q4 121 61.5 177t139.5 56q47 0 88 -16.5t92 -46.5q45 -27 73.5 -39t59.5 -12q51 0 81 31.5 t32 90.5h104q-2 -115 -55 -177t-147 -62q-45 0 -85 16.5t-92 46.5q-43 27 -74.5 40.5t-62.5 13.5q-47 0 -77.5 -31t-32.5 -88h-105z" />
<glyph unicode="&#xf2;" horiz-adv-x="1179" d="M106 549q0 225 51.5 347t155 168t277.5 46t277.5 -47t154.5 -169t51 -345q0 -221 -50 -343t-153.5 -170t-279.5 -48q-174 0 -278.5 49t-155 171t-50.5 341zM313 551q0 -172 30 -257t86 -111.5t161 -26.5q102 0 160.5 27.5t88 112.5t29.5 255t-29.5 255t-88 111.5 t-160.5 26.5q-104 0 -160.5 -26.5t-86.5 -111.5t-30 -255zM322 1575h170l201 -283h-121z" />
<glyph unicode="&#xf3;" horiz-adv-x="1179" d="M106 549q0 225 51.5 347t155 168t277.5 46t277.5 -47t154.5 -169t51 -345q0 -221 -50 -343t-153.5 -170t-279.5 -48q-174 0 -278.5 49t-155 171t-50.5 341zM313 551q0 -172 30 -257t86 -111.5t161 -26.5q102 0 160.5 27.5t88 112.5t29.5 255t-29.5 255t-88 111.5 t-160.5 26.5q-104 0 -160.5 -26.5t-86.5 -111.5t-30 -255zM516 1292l199 283h172l-250 -283h-121z" />
<glyph unicode="&#xf4;" horiz-adv-x="1179" d="M106 549q0 225 51.5 347t155 168t277.5 46t277.5 -47t154.5 -169t51 -345q0 -221 -50 -343t-153.5 -170t-279.5 -48q-174 0 -278.5 49t-155 171t-50.5 341zM282 1292l242 281h143l220 -281h-123l-172 187l-187 -187h-123zM313 551q0 -172 30 -257t86 -111.5t161 -26.5 q102 0 160.5 27.5t88 112.5t29.5 255t-29.5 255t-88 111.5t-160.5 26.5q-104 0 -160.5 -26.5t-86.5 -111.5t-30 -255z" />
<glyph unicode="&#xf5;" horiz-adv-x="1179" d="M106 549q0 225 51.5 347t155 168t277.5 46t277.5 -47t154.5 -169t51 -345q0 -221 -50 -343t-153.5 -170t-279.5 -48q-174 0 -278.5 49t-155 171t-50.5 341zM244 1313q4 121 61.5 177t139.5 56q47 0 88 -16.5t92 -46.5q45 -27 73.5 -39t59.5 -12q51 0 81 31.5t32 90.5h104 q-2 -115 -55 -177t-147 -62q-45 0 -85 16.5t-92 46.5q-43 27 -74.5 40.5t-62.5 13.5q-47 0 -77.5 -31t-32.5 -88h-105zM313 551q0 -172 30 -257t86 -111.5t161 -26.5q102 0 160.5 27.5t88 112.5t29.5 255t-29.5 255t-88 111.5t-160.5 26.5q-104 0 -160.5 -26.5t-86.5 -111.5 t-30 -255z" />
<glyph unicode="&#xf6;" horiz-adv-x="1179" d="M106 549q0 225 51.5 347t155 168t277.5 46t277.5 -47t154.5 -169t51 -345q0 -221 -50 -343t-153.5 -170t-279.5 -48q-174 0 -278.5 49t-155 171t-50.5 341zM301 1362v172q0 37 37 37h94q35 0 35 -37v-172q0 -35 -35 -35h-94q-16 0 -26.5 10.5t-10.5 24.5zM313 551 q0 -172 30 -257t86 -111.5t161 -26.5q102 0 160.5 27.5t88 112.5t29.5 255t-29.5 255t-88 111.5t-160.5 26.5q-104 0 -160.5 -26.5t-86.5 -111.5t-30 -255zM703 1362v172q0 37 35 37h96q35 0 35 -37v-172q0 -16 -9.5 -25.5t-25.5 -9.5h-96q-17 0 -26 10.5t-9 24.5z" />
<glyph unicode="&#xf7;" d="M164 645v168h917v-168h-917zM516 256v119q0 25 12.5 38t36.5 13h117q51 0 51 -51v-119q0 -47 -51 -47h-117q-22 0 -35.5 13.5t-13.5 33.5zM516 1079v121q0 25 12.5 38t36.5 13h117q51 0 51 -51v-121q0 -47 -51 -47h-117q-22 0 -35.5 13.5t-13.5 33.5z" />
<glyph unicode="&#xf8;" horiz-adv-x="1179" d="M90 0l109 133q-47 63 -70 165.5t-23 250.5q0 225 51.5 347t155 168t277.5 46q117 0 198.5 -19.5t139.5 -66.5l57 72h105l-107 -131q47 -66 68.5 -166.5t21.5 -249.5q0 -221 -50 -343t-153.5 -170t-279.5 -48q-113 0 -196 20.5t-140 65.5l-59 -74h-105zM313 551 q0 -164 27 -246l463 567q-33 41 -83 56.5t-130 15.5q-104 0 -160.5 -26.5t-86.5 -111.5t-30 -255zM379 225q31 -41 81 -55t130 -14q102 0 160.5 27.5t88 112.5t29.5 255q1 160 -26 242z" />
<glyph unicode="&#xf9;" horiz-adv-x="1208" d="M141 324v772h205v-717q0 -117 53.5 -163t161.5 -46q152 0 303 96v830h205v-1096h-164l-41 119q-205 -131 -399 -131q-158 0 -241 84t-83 252zM322 1575h170l201 -283h-121z" />
<glyph unicode="&#xfa;" horiz-adv-x="1208" d="M141 324v772h205v-717q0 -117 53.5 -163t161.5 -46q152 0 303 96v830h205v-1096h-164l-41 119q-205 -131 -399 -131q-158 0 -241 84t-83 252zM516 1292l199 283h172l-250 -283h-121z" />
<glyph unicode="&#xfb;" horiz-adv-x="1208" d="M141 324v772h205v-717q0 -117 53.5 -163t161.5 -46q152 0 303 96v830h205v-1096h-164l-41 119q-205 -131 -399 -131q-158 0 -241 84t-83 252zM282 1292l242 281h143l220 -281h-123l-172 187l-187 -187h-123z" />
<glyph unicode="&#xfc;" horiz-adv-x="1208" d="M141 324v772h205v-717q0 -117 53.5 -163t161.5 -46q152 0 303 96v830h205v-1096h-164l-41 119q-205 -131 -399 -131q-158 0 -241 84t-83 252zM301 1362v172q0 37 37 37h94q35 0 35 -37v-172q0 -35 -35 -35h-94q-16 0 -26.5 10.5t-10.5 24.5zM703 1362v172q0 37 35 37h96 q35 0 35 -37v-172q0 -16 -9.5 -25.5t-25.5 -9.5h-96q-17 0 -26 10.5t-9 24.5z" />
<glyph unicode="&#xfd;" horiz-adv-x="1126" d="M35 1096h215l221 -785q45 -139 154 -139l256 924h211l-377 -1379l-99 -202h-163l133 485q-106 2 -186.5 65.5t-118.5 202.5zM477 1292l199 283h172l-250 -283h-121z" />
<glyph unicode="&#xfe;" horiz-adv-x="1187" d="M143 -485v2048h205v-578q68 49 160 87t182 38q195 0 293 -155.5t98 -405.5q0 -563 -391 -563q-84 0 -175 25.5t-167 68.5v-565h-205zM348 236q63 -37 136 -57.5t145 -20.5q248 0 248 383q0 207 -69 304t-177 97q-131 0 -283 -82v-624z" />
<glyph unicode="&#xff;" horiz-adv-x="1126" d="M35 1096h215l221 -785q45 -139 154 -139l256 924h211l-377 -1379l-99 -202h-163l133 485q-106 2 -186.5 65.5t-118.5 202.5zM262 1362v172q0 37 37 37h94q35 0 35 -37v-172q0 -35 -35 -35h-94q-16 0 -26.5 10.5t-10.5 24.5zM664 1362v172q0 37 35 37h96q35 0 35 -37v-172 q0 -16 -9.5 -25.5t-25.5 -9.5h-96q-17 0 -26 10.5t-9 24.5z" />
<glyph unicode="&#x131;" horiz-adv-x="487" d="M143 0v1096h205v-1096h-205z" />
<glyph unicode="&#x152;" horiz-adv-x="2154" d="M113 750q0 319 65.5 486t190.5 226.5t338 59.5q158 0 264 -30t176 -103q41 61 108.5 90.5t145.5 29.5q246 0 553 -16l92 -4v-170h-582q-161 0 -161 -162v-313l651 -13v-159l-651 -15v-309q0 -96 45 -130t120 -34h578v-170q-356 -23 -631 -22q-199 0 -274 119 q-70 -70 -174.5 -96.5t-259.5 -26.5q-215 0 -340 57t-189.5 221t-64.5 484zM317 750q0 -248 36 -370t117 -165t237 -43q151 0 233 43t119 166t37 369q0 256 -37 380.5t-118 165.5t-234 41q-147 0 -228.5 -42t-121.5 -166.5t-40 -378.5z" />
<glyph unicode="&#x153;" horiz-adv-x="1857" d="M106 549q0 225 51.5 347t155 168t277.5 46q143 0 234 -36t143 -124q49 82 133 121t213 39q158 0 251 -31.5t140 -114.5t47 -239q0 -129 -83 -192.5t-220 -63.5h-385q2 -174 72.5 -249t234.5 -75h350v-122q-225 -35 -407 -35q-123 0 -209 40t-135 126q-51 -92 -143.5 -129 t-239.5 -37q-172 0 -275.5 49t-154 171t-50.5 341zM313 551q0 -176 30 -263t87 -115t160 -28q102 0 160.5 28t88 116t29.5 262t-29.5 260t-88 113.5t-160.5 27.5q-104 0 -160.5 -27.5t-86.5 -113.5t-30 -260zM1061 598h348q78 0 118 32t40 113q0 127 -58.5 171t-195.5 44 q-144 0 -198 -82.5t-54 -277.5z" />
<glyph unicode="&#x178;" horiz-adv-x="1271" d="M61 1509h215l363 -813l365 813h206l-471 -1022v-487h-207v487zM307 1690v172q0 37 35 36h96q35 0 35 -36v-172q0 -16 -9 -25.5t-26 -9.5h-96q-16 0 -25.5 10t-9.5 25zM774 1690v172q0 37 37 36h94q35 0 35 -36v-172q0 -16 -9 -25.5t-26 -9.5h-94q-16 0 -26.5 10t-10.5 25 z" />
<glyph unicode="&#x192;" d="M39 -387l22 127h121q72 0 118 37t78 121t56 235l111 672h-187l23 149h182l47 254q37 223 118 325.5t247 102.5q123 0 209 -30l-21 -127h-123q-74 0 -117.5 -32t-69.5 -98.5t-46 -185.5l-37 -209h250l-25 -149h-243l-105 -625q-35 -215 -84 -344t-127 -191.5t-198 -62.5 q-60 0 -114 9.5t-85 21.5z" />
<glyph unicode="&#x2c6;" horiz-adv-x="806" d="M102 1292l242 281h143l220 -281h-123l-172 187l-187 -187h-123z" />
<glyph unicode="&#x2c7;" horiz-adv-x="806" d="M102 1573h123l172 -184l185 184h125l-242 -281h-143z" />
<glyph unicode="&#x2d8;" horiz-adv-x="727" d="M92 1581h96q0 -102 49.5 -151.5t122.5 -49.5q180 0 181 201h100q0 -156 -74.5 -226.5t-201.5 -70.5q-125 0 -199 71.5t-74 225.5z" />
<glyph unicode="&#x2d9;" horiz-adv-x="368" d="M96 1362v172q0 37 35 37h96q35 0 35 -37v-172q0 -16 -9 -25.5t-26 -9.5h-96q-14 0 -24.5 10.5t-10.5 24.5z" />
<glyph unicode="&#x2da;" horiz-adv-x="673" d="M102 1434q0 121 58.5 173t179.5 52q119 0 175 -51.5t56 -173.5q0 -123 -56 -173.5t-175 -50.5q-121 0 -179.5 51.5t-58.5 172.5zM201 1434q0 -80 32.5 -111t106.5 -31q72 0 102.5 31t30.5 111t-30.5 111.5t-102.5 31.5q-74 0 -106.5 -32t-32.5 -111z" />
<glyph unicode="&#x2db;" horiz-adv-x="473" d="M98 -203q0 63 37 115.5t111 87.5h78q-121 -68 -121 -158q0 -57 41 -90t112 -33h17v-100q-33 -4 -58 -4q-104 0 -160.5 52t-56.5 130z" />
<glyph unicode="&#x2dc;" horiz-adv-x="905" d="M92 1313q4 121 61.5 177t139.5 56q47 0 88 -16.5t92 -46.5q45 -27 73.5 -39t59.5 -12q51 0 81 31.5t32 90.5h104q-2 -115 -55 -177t-147 -62q-45 0 -85 16.5t-92 46.5q-43 27 -74.5 40.5t-62.5 13.5q-47 0 -77.5 -31t-32.5 -88h-105z" />
<glyph unicode="&#x2dd;" horiz-adv-x="774" d="M41 1292l188 283h164l-231 -283h-121zM356 1292l191 283h162l-232 -283h-121z" />
<glyph unicode="&#x3a9;" horiz-adv-x="1585" d="M109 0v164l337 18q-317 240 -317 631q0 190 64.5 348t212 255t387.5 97q342 0 500.5 -191.5t158.5 -516.5q0 -180 -80 -342t-227 -283l338 -18v-162h-543v180q156 119 230.5 276.5t74.5 331.5q0 244 -106.5 392.5t-345.5 148.5q-242 0 -350.5 -146.5t-108.5 -389.5 q0 -188 73.5 -328.5t243.5 -284.5v-180h-542z" />
<glyph unicode="&#x3c0;" horiz-adv-x="1277" d="M41 907v189h1106v-189h-209v-614q0 -78 28.5 -109.5t92.5 -31.5h104v-121q-74 -43 -178 -43q-127 0 -189.5 71.5t-62.5 225.5v622h-295v-907h-207v907h-190z" />
<glyph unicode="&#x2000;" horiz-adv-x="1007" />
<glyph unicode="&#x2001;" horiz-adv-x="2015" />
<glyph unicode="&#x2002;" horiz-adv-x="1007" />
<glyph unicode="&#x2003;" horiz-adv-x="2015" />
<glyph unicode="&#x2004;" horiz-adv-x="671" />
<glyph unicode="&#x2005;" horiz-adv-x="503" />
<glyph unicode="&#x2006;" horiz-adv-x="335" />
<glyph unicode="&#x2007;" horiz-adv-x="335" />
<glyph unicode="&#x2008;" horiz-adv-x="251" />
<glyph unicode="&#x2009;" horiz-adv-x="403" />
<glyph unicode="&#x200a;" horiz-adv-x="111" />
<glyph unicode="&#x2010;" horiz-adv-x="706" d="M49 510v168h608v-168h-608z" />
<glyph unicode="&#x2011;" horiz-adv-x="706" d="M49 510v168h608v-168h-608z" />
<glyph unicode="&#x2012;" horiz-adv-x="706" d="M49 510v168h608v-168h-608z" />
<glyph unicode="&#x2013;" horiz-adv-x="1067" d="M49 508v170h969v-170h-969z" />
<glyph unicode="&#x2014;" horiz-adv-x="1523" d="M49 508v170h1426v-170h-1426z" />
<glyph unicode="&#x2018;" horiz-adv-x="405" d="M109 1106v299q0 78 42 107.5t99 29.5q31 0 49 -6v-74q-51 0 -51 -49v-90h18q18 0 28.5 -10t10.5 -31v-176q0 -43 -39 -43h-125q-32 0 -32 43z" />
<glyph unicode="&#x2019;" horiz-adv-x="405" d="M100 1315v176q0 43 39 43h125q33 0 33 -43v-299q0 -78 -43 -107.5t-98 -29.5q-27 0 -50 6v74q51 0 52 49v90h-19q-16 0 -27.5 11t-11.5 30z" />
<glyph unicode="&#x201a;" horiz-adv-x="405" d="M100 29v176q0 43 39 43h125q33 0 33 -43v-299q0 -78 -43 -107.5t-98 -29.5q-38 0 -50 6v73q51 0 52 50v90h-19q-16 0 -27.5 11t-11.5 30z" />
<glyph unicode="&#x201c;" horiz-adv-x="679" d="M109 1106v299q0 78 42 107.5t99 29.5q31 0 49 -6v-74q-51 0 -51 -49v-90h18q18 0 28.5 -10t10.5 -31v-176q0 -43 -39 -43h-125q-32 0 -32 43zM383 1106v299q0 78 42 107.5t99 29.5q31 0 49 -6v-74q-51 0 -51 -49v-90h18q18 0 28.5 -10t10.5 -31v-176q0 -43 -39 -43h-125 q-32 0 -32 43z" />
<glyph unicode="&#x201d;" horiz-adv-x="679" d="M100 1315v176q0 43 39 43h125q33 0 33 -43v-299q0 -78 -43 -107.5t-98 -29.5q-27 0 -50 6v74q51 0 52 49v90h-19q-16 0 -27.5 11t-11.5 30zM374 1315v176q0 43 39 43h125q33 0 33 -43v-299q0 -78 -43 -107.5t-98 -29.5q-27 0 -50 6v74q51 0 52 49v90h-19q-16 0 -27.5 11 t-11.5 30z" />
<glyph unicode="&#x201e;" horiz-adv-x="679" d="M100 29v176q0 43 39 43h125q33 0 33 -43v-299q0 -78 -43 -107.5t-98 -29.5q-38 0 -50 6v73q51 0 52 50v90h-19q-16 0 -27.5 11t-11.5 30zM374 29v176q0 43 39 43h125q33 0 33 -43v-299q0 -78 -43 -107.5t-98 -29.5q-38 0 -50 6v73q51 0 52 50v90h-19q-16 0 -27.5 11 t-11.5 30z" />
<glyph unicode="&#x2020;" horiz-adv-x="897" d="M41 967v153l303 19l16 438h177l16 -438l303 -19v-153l-303 -19l-18 -1095h-177l-14 1095z" />
<glyph unicode="&#x2021;" horiz-adv-x="935" d="M41 334v151l303 23v440l-303 19v153l303 19l16 438h177l16 -438l303 -19v-153l-303 -19v-440l303 -23v-151l-303 -23l-18 -458h-177l-16 456z" />
<glyph unicode="&#x2022;" horiz-adv-x="645" d="M174 694v172q0 33 17.5 52.5t50.5 19.5h159q72 0 72 -72v-172q0 -66 -72 -65h-159q-31 0 -49.5 17.5t-18.5 47.5z" />
<glyph unicode="&#x2026;" horiz-adv-x="1671" d="M184 35v178q0 37 37 37h115q37 0 37 -37v-178q0 -35 -37 -35h-115q-16 0 -26.5 9t-10.5 26zM741 35v178q0 37 37 37h115q37 0 37 -37v-178q0 -35 -37 -35h-115q-16 0 -26.5 9t-10.5 26zM1298 35v178q0 37 37 37h115q37 0 37 -37v-178q0 -35 -37 -35h-115q-16 0 -26.5 9 t-10.5 26z" />
<glyph unicode="&#x202f;" horiz-adv-x="403" />
<glyph unicode="&#x2030;" horiz-adv-x="2824" d="M86 981v254q0 135 62.5 199.5t211.5 64.5h207q145 0 207 -64.5t62 -199.5v-254q0 -137 -61.5 -201.5t-211.5 -64.5h-207q-145 0 -207.5 65.5t-62.5 200.5zM219 1008q0 -88 36 -124t124 -36h160q90 0 126.5 35t36.5 125v198q0 90 -34.5 125t-124.5 35h-160q-86 0 -125 -33 t-39 -127v-198zM451 0l911 1499h137l-905 -1499h-143zM1133 272v254q0 135 61 200t211 65h209q145 0 206.5 -64.5t61.5 -200.5v-254q0 -137 -61.5 -201.5t-210.5 -64.5h-209q-146 0 -207 65.5t-61 200.5zM1266 299q0 -88 35.5 -124t123.5 -36h160q90 0 127 35t37 125v199 q0 90 -35 124.5t-125 34.5h-159q-86 0 -125 -32.5t-39 -126.5v-199zM1989 272v254q0 135 62.5 200t211.5 65h207q145 0 206.5 -64.5t61.5 -200.5v-254q0 -137 -61.5 -201.5t-210.5 -64.5h-207q-145 0 -207.5 65.5t-62.5 200.5zM2122 299q0 -88 35.5 -124t123.5 -36h162 q88 0 125 35t37 125v199q0 90 -35 124.5t-123 34.5h-161q-86 0 -125 -32.5t-39 -126.5v-199z" />
<glyph unicode="&#x2039;" horiz-adv-x="745" d="M102 575l441 435l106 -107l-334 -328l342 -335l-106 -109z" />
<glyph unicode="&#x203a;" horiz-adv-x="745" d="M92 903l111 107l444 -441l-446 -438l-103 109l334 329z" />
<glyph unicode="&#x2044;" horiz-adv-x="544" d="M-184 0l766 1577h147l-766 -1577h-147z" />
<glyph unicode="&#x205f;" horiz-adv-x="503" />
<glyph unicode="&#x20ac;" d="M41 530v99l143 10q-2 37 -2 121v74l-141 10v94l147 12q18 223 83 347t175.5 174.5t280.5 50.5q106 0 229 -17.5t218 -42.5v-155q-66 10 -180.5 20t-229.5 10q-123 0 -197.5 -31.5t-116.5 -114.5t-55 -239l545 -12v-96l-553 -10v-76q0 -82 2 -119l551 -10v-99l-543 -10 q14 -141 56.5 -216t115 -103.5t193.5 -28.5q248 0 412 25v-158q-205 -51 -455 -51q-168 0 -273.5 43t-169 158.5t-83.5 330.5z" />
<glyph unicode="&#x2122;" horiz-adv-x="1452" d="M41 1397v102h567v-102h-223v-613h-121v613h-223zM651 784l74 715h125l194 -532l170 532h127l82 -715h-118l-48 514l-170 -514h-90l-182 514l-45 -514h-119z" />
<glyph unicode="&#x2202;" horiz-adv-x="1335" d="M117 465q0 227 128 343t359 116q90 0 187.5 -25t171.5 -78q0 252 -80 381t-273 129q-109 0 -213 -34.5t-174 -77.5l-28 151q106 72 206.5 109t223.5 37q281 0 412.5 -188.5t131.5 -534.5q0 -360 -131 -581.5t-420 -221.5q-139 0 -252.5 53t-181 159.5t-67.5 262.5z M317 469q0 -145 88.5 -220t217.5 -75t201.5 87t97 199.5t24.5 213.5q-43 25 -134 46t-171 21q-162 0 -243 -64.5t-81 -207.5z" />
<glyph unicode="&#x2206;" horiz-adv-x="1445" d="M59 0l514 1509h242l514 -1509h-1270zM322 184h741l-371 1104z" />
<glyph unicode="&#x220f;" horiz-adv-x="1267" d="M41 1325v184h1186v-184h-160v-1325h-207v1325h-457v-1325h-204v1325h-158z" />
<glyph unicode="&#x2211;" horiz-adv-x="1153" d="M82 -215l438 774l-438 762v188h1032v-188h-782l436 -762l-436 -778h782v-191h-1032v195z" />
<glyph unicode="&#x221a;" horiz-adv-x="1298" d="M41 565v187h291l200 -463l502 1349h223l-610 -1638h-198l-261 565h-147z" />
<glyph unicode="&#x221e;" horiz-adv-x="1607" d="M102 698q0 164 62.5 259.5t249.5 95.5q110 0 210.5 -73t176.5 -177q59 100 171.5 175t233.5 75q180 0 240.5 -98.5t60.5 -256.5q0 -162 -68.5 -257t-248.5 -95q-113 0 -215.5 69.5t-175.5 182.5q-145 -252 -385 -252q-176 0 -244 95.5t-68 256.5zM252 698q0 -109 39 -160 t133 -51q150 0 283 213q-59 86 -136 148.5t-145 62.5q-104 0 -139 -48t-35 -165zM897 700q53 -90 127 -151.5t152 -61.5q104 0 143 54.5t39 156.5q0 106 -35 159.5t-137 53.5q-76 0 -156 -64.5t-133 -146.5z" />
<glyph unicode="&#x222b;" horiz-adv-x="921" d="M41 -258h133q84 0 133 61.5t49 194.5v1245q0 182 77 287.5t237 105.5q104 0 152 -14t59 -16v-127h-136q-100 0 -141 -63.5t-41 -180.5v-1223q0 -201 -80 -314.5t-245 -113.5q-53 0 -109.5 9.5t-87.5 21.5v127z" />
<glyph unicode="&#x2248;" d="M164 338v168q43 39 99 60.5t118 21.5q55 0 105.5 -10.5t127.5 -30.5q74 -20 128.5 -30.5t113.5 -10.5q139 0 225 82v-168q-39 -37 -88 -59.5t-127 -22.5q-61 0 -115.5 10t-142.5 33q-72 18 -121 28.5t-98 10.5q-61 0 -120.5 -21.5t-104.5 -60.5zM164 829v168 q43 39 99 60.5t118 21.5q55 0 105.5 -10t127.5 -31q74 -20 128.5 -30.5t113.5 -10.5q139 0 225 82v-168q-39 -37 -88 -59.5t-127 -22.5q-61 0 -115.5 10.5t-142.5 32.5q-72 18 -121 28.5t-98 10.5q-61 0 -120.5 -21.5t-104.5 -60.5z" />
<glyph unicode="&#x2260;" d="M164 399v168h297l180 324h-477v168h569l131 237h146l-131 -237h202v-168h-297l-178 -324h475v-168h-569l-131 -237h-143l131 237h-205z" />
<glyph unicode="&#x2264;" d="M166 133v168h917v-168h-917zM199 754v184l850 254v-178l-654 -166l654 -174v-180z" />
<glyph unicode="&#x2265;" d="M164 133v168h917v-168h-917zM201 494v180l653 172l-653 168v178l850 -254v-184z" />
<glyph unicode="&#x25ca;" horiz-adv-x="1069" d="M41 764l453 735h94l440 -735l-440 -764h-94zM236 764l305 -506l293 506l-293 487z" />
<glyph unicode="&#x25fc;" horiz-adv-x="1095" d="M0 0v1096h1096v-1096h-1096z" />
<glyph unicode="&#xfb03;" horiz-adv-x="2076" d="M35 928v133l164 35v137q0 182 71.5 262t239.5 80q135 0 246 -31v-147q-106 8 -181 8q-98 0 -133.5 -47t-35.5 -152v-110h585v137q0 182 72 262t240 80q135 0 245 -31v-147q-106 8 -180 8q-98 0 -134 -47t-36 -152v-110h735v-1096h-204v928h-531v-928h-207v928h-585v-928 h-207v928h-164zM1720 1315v172q0 37 37 37h152q16 0 24.5 -10.5t8.5 -26.5v-172q0 -35 -33 -35h-152q-16 0 -26.5 9t-10.5 26z" />
<glyph unicode="&#xfb04;" horiz-adv-x="2199" d="M35 928v133l164 35v137q0 182 71.5 262t239.5 80q135 0 246 -31v-147q-106 8 -181 8q-98 0 -133.5 -47t-35.5 -152v-110h585v118q0 193 95.5 277t314.5 84q250 0 532 -47v-1145q0 -121 34 -167t108 -56l102 -13v-147h-143q-156 0 -230.5 83t-74.5 271v1045q-150 6 -299 6 q-133 0 -182.5 -47t-49.5 -152v-110h320v-168h-320v-928h-207v928h-585v-928h-207v928h-164z" />
</font>
</defs>
</svg>
